<svg width="145" height="36" viewBox="0 0 145 36" fill="none" xmlns="http://www.w3.org/2000/svg">
<path fill-rule="evenodd" clip-rule="evenodd" d="M51.3738 10.3381H68.8166V14.483H62.4266V34.5163H57.7637V14.483H51.3738V10.3381Z" fill="white"/>
<path fill-rule="evenodd" clip-rule="evenodd" d="M80.5598 19.664H84.4283C85.5566 19.664 86.3395 19.4223 86.7771 18.9387C87.2376 18.4325 87.4679 17.8219 87.4679 17.108C87.4679 16.3715 87.2376 15.7498 86.7771 15.2428C86.3161 14.7366 85.5336 14.483 84.4283 14.483H80.5598V19.664ZM82.2523 23.8089H80.5598V34.5163H75.8972V10.3381H84.705C86.9156 10.3381 88.6767 10.9372 89.9893 12.1342C91.417 13.4932 92.1308 15.1393 92.1308 17.0735C92.1308 19.0078 91.417 20.6546 89.9893 22.0127C89.2989 22.6579 88.4926 23.1299 87.5719 23.4293L96.6214 34.5163H90.8528L82.2523 23.8089Z" fill="white"/>
<path fill-rule="evenodd" clip-rule="evenodd" d="M125.532 4.03236L115.094 10.0591C114.462 9.96486 113.817 9.91603 113.159 9.91603C105.979 9.91603 100.159 15.7362 100.159 22.9158C100.159 30.0954 105.979 35.9155 113.159 35.9155C116.937 35.9155 120.338 34.3039 122.713 31.7306L137.174 23.3805C137.444 23.2245 137.537 22.8788 137.381 22.6084C137.225 22.3381 136.879 22.2454 136.609 22.4016L124.397 29.4528C125.517 27.5324 126.158 25.2989 126.158 22.9158C126.158 16.9776 122.177 11.9693 116.738 10.415L126.097 5.01133C126.368 4.85524 126.46 4.50957 126.304 4.23924C126.148 3.96891 125.802 3.87628 125.532 4.03236ZM113.159 13.3073C118.465 13.3073 122.767 17.6092 122.767 22.9158C122.767 28.2224 118.465 32.5243 113.159 32.5243C107.852 32.5243 103.55 28.2224 103.55 22.9158C103.55 17.6092 107.852 13.3073 113.159 13.3073Z" fill="white"/>
<path d="M127.351 14.2059L139.098 7.42347C139.368 7.2674 139.714 7.36002 139.87 7.63035C140.026 7.90069 139.933 8.24636 139.663 8.40243L127.916 15.1849C127.646 15.341 127.3 15.2484 127.144 14.978C126.988 14.7077 127.081 14.362 127.351 14.2059Z" fill="white"/>
<path d="M128.481 19.8581L143.165 11.38C143.435 11.2239 143.781 11.3166 143.937 11.5869C144.093 11.8573 144.001 12.203 143.73 12.359L129.046 20.837C128.775 20.9932 128.43 20.9006 128.274 20.6302C128.118 20.3599 128.21 20.0142 128.481 19.8581Z" fill="white"/>
<path d="M107.537 19.2928L140.822 0.0758176C141.092 -0.0802594 141.438 0.0123631 141.594 0.282696C141.75 0.553031 141.658 0.898705 141.387 1.05478L108.103 20.2717C107.832 20.4279 107.487 20.3353 107.33 20.0649C107.174 19.7946 107.267 19.4489 107.537 19.2928Z" fill="white"/>
<mask id="mask0_1_619" style="mask-type:alpha" maskUnits="userSpaceOnUse" x="29" y="9" width="18" height="26">
<path fill-rule="evenodd" clip-rule="evenodd" d="M29.7866 9.99243H46.7114V34.8619H29.7866V9.99243Z" fill="white"/>
</mask>
<g mask="url(#mask0_1_619)">
<path fill-rule="evenodd" clip-rule="evenodd" d="M29.7866 31.2352L32.8262 28.0575C34.4377 29.8309 36.3374 30.7166 38.5253 30.7166C39.5615 30.7166 40.4077 30.4292 41.0641 29.8531C41.7203 29.2779 42.0484 28.5529 42.0484 27.6771C42.0484 26.7568 41.68 26.0141 40.9431 25.4496C40.2058 24.8855 39.0834 24.3159 37.5755 23.7399C36.0672 23.1646 34.9792 22.681 34.3114 22.2889C32.0317 20.9541 30.8919 19.123 30.8919 16.7973C30.8919 14.7479 31.6863 13.1014 33.2752 11.858C34.8641 10.6145 36.7293 9.99243 38.8707 9.99243C41.4958 9.99243 43.8327 10.7527 45.8824 12.2725L43.4646 15.7265C42.3128 14.6676 40.9202 14.1377 39.2852 14.1377C38.2947 14.1377 37.4254 14.3568 36.6774 14.7939C35.9286 15.2315 35.5549 15.8881 35.5549 16.7627C35.5549 17.4535 35.9401 18.058 36.712 18.5761C37.4834 19.0942 38.4098 19.5547 39.4924 19.9577C40.5747 20.3607 41.6627 20.827 42.7565 21.3566C43.85 21.8867 44.7825 22.681 45.5543 23.7399C46.3257 24.7992 46.7114 26.0886 46.7114 27.6085C46.7114 29.7043 45.905 31.4366 44.2935 32.8068C42.6817 34.1768 40.7585 34.8619 38.5253 34.8619C35.3476 34.8619 32.4343 33.653 29.7866 31.2352Z" fill="white"/>
</g>
<mask id="mask1_1_619" style="mask-type:alpha" maskUnits="userSpaceOnUse" x="0" y="10" width="25" height="25">
<path fill-rule="evenodd" clip-rule="evenodd" d="M0.456543 10.2104H24.462V34.4171H0.456543V10.2104Z" fill="white"/>
</mask>
<g mask="url(#mask1_1_619)">
<path fill-rule="evenodd" clip-rule="evenodd" d="M10.8187 10.2104L0.456543 34.3887C0.456543 34.3887 5.13446 34.4528 5.32673 34.3887C5.51901 34.3246 12.4421 17.7403 12.4421 17.7403L19.5919 34.3887H24.4621L14.0999 10.2104H10.8187Z" fill="white"/>
</g>
</svg>
