<svg width="156" height="26" viewBox="0 0 156 26" fill="none" xmlns="http://www.w3.org/2000/svg">
<path fill-rule="evenodd" clip-rule="evenodd" d="M140.915 9.53307V4.72893H136.619V9.53307H134.017V12.4776H136.619V21.9309C136.619 22.7368 136.75 23.3875 137.013 23.8836C137.275 24.3795 137.632 24.7617 138.086 25.0304C138.54 25.2988 139.064 25.4797 139.659 25.5727C140.255 25.6658 140.884 25.7122 141.55 25.7122C141.974 25.7122 142.407 25.7018 142.851 25.6811C143.294 25.6605 143.698 25.6192 144.061 25.5573V22.1478C143.859 22.1891 143.647 22.2202 143.425 22.2409C143.204 22.2614 142.972 22.2719 142.73 22.2719C142.003 22.2719 141.519 22.1478 141.278 21.8999C141.036 21.652 140.915 21.156 140.915 20.4122V12.4776H144.061V9.53307H140.915ZM128.319 17.7157C128.138 17.881 127.91 18.0101 127.638 18.1031C127.366 18.1961 127.074 18.2736 126.761 18.3355C126.449 18.3976 126.121 18.4491 125.777 18.4905C125.435 18.5317 125.092 18.5835 124.749 18.6456C124.427 18.7075 124.109 18.79 123.796 18.8935C123.484 18.9967 123.211 19.1362 122.98 19.312C122.748 19.4875 122.561 19.7095 122.42 19.9783C122.279 20.2468 122.208 20.5877 122.208 21.001C122.208 21.3936 122.279 21.7243 122.42 21.993C122.561 22.2614 122.752 22.4733 122.994 22.6282C123.236 22.7833 123.519 22.8917 123.842 22.9537C124.164 23.0156 124.497 23.0467 124.84 23.0467C125.687 23.0467 126.343 22.9019 126.806 22.6128C127.27 22.3235 127.613 21.9775 127.835 21.5745C128.056 21.1716 128.193 20.7634 128.243 20.3501C128.294 19.9368 128.319 19.6063 128.319 19.3584V17.7157ZM118.397 14.4612C118.457 13.4281 118.709 12.5706 119.152 11.8888C119.596 11.2068 120.161 10.6592 120.847 10.246C121.533 9.8327 122.304 9.53833 123.16 9.36261C124.018 9.18698 124.88 9.09921 125.748 9.09921C126.534 9.09921 127.331 9.156 128.138 9.26968C128.944 9.38335 129.68 9.60544 130.345 9.93595C131.011 10.2667 131.556 10.7264 131.979 11.3153C132.403 11.9043 132.614 12.6841 132.614 13.6554V21.993C132.614 22.7161 132.655 23.4082 132.735 24.0695C132.816 24.7307 132.958 25.2266 133.159 25.5573H128.802C128.722 25.3094 128.657 25.0561 128.606 24.7978C128.556 24.5395 128.521 24.2762 128.501 24.0075C127.814 24.7307 127.008 25.2369 126.08 25.5262C125.152 25.8156 124.205 25.9601 123.236 25.9601C122.49 25.9601 121.795 25.8672 121.149 25.6811C120.504 25.4953 119.939 25.2059 119.455 24.8133C118.971 24.4207 118.594 23.9248 118.321 23.3257C118.049 22.7264 117.912 22.0135 117.912 21.1871C117.912 20.2778 118.069 19.5289 118.381 18.9399C118.694 18.351 119.098 17.881 119.592 17.5296C120.086 17.1783 120.65 16.9149 121.285 16.7393C121.92 16.5637 122.561 16.4242 123.207 16.321C123.851 16.2176 124.488 16.135 125.113 16.0729C125.738 16.0109 126.292 15.918 126.776 15.794C127.26 15.67 127.644 15.4892 127.925 15.2516C128.208 15.014 128.339 14.6679 128.319 14.2132C128.319 13.738 128.243 13.3609 128.092 13.082C127.941 12.803 127.739 12.5861 127.487 12.4311C127.234 12.2762 126.943 12.1727 126.609 12.1211C126.277 12.0695 125.919 12.0438 125.535 12.0438C124.689 12.0438 124.023 12.2297 123.539 12.6015C123.055 12.9735 122.773 13.5934 122.692 14.4612H118.397ZM101.112 3.42725V25.5573H105.407V17.1577C105.407 15.5253 105.669 14.3527 106.194 13.6399C106.718 12.9269 107.565 12.5706 108.735 12.5706C109.763 12.5706 110.479 12.8961 110.883 13.5469C111.286 14.1979 111.488 15.1844 111.488 16.507V25.5573H115.783V15.7011C115.783 14.7093 115.697 13.8052 115.527 12.9891C115.355 12.1727 115.058 11.4806 114.634 10.9124C114.21 10.3441 113.631 9.89981 112.894 9.57963C112.158 9.25934 111.215 9.09921 110.066 9.09921C109.259 9.09921 108.432 9.31107 107.585 9.73451C106.738 10.1582 106.043 10.8349 105.498 11.7648H105.407V3.42725H101.112ZM94.8684 15.1742H99.0734C99.0128 14.1409 98.7708 13.2472 98.3472 12.4931C97.9238 11.7389 97.3742 11.1086 96.6987 10.6024C96.0229 10.0961 95.2566 9.71913 94.3994 9.47112C93.5423 9.22311 92.65 9.09921 91.7223 9.09921C90.4518 9.09921 89.3224 9.31614 88.3342 9.7501C87.346 10.1841 86.5089 10.7883 85.8233 11.5633C85.1376 12.3382 84.6183 13.2576 84.2653 14.3219C83.9123 15.3858 83.7359 16.5378 83.7359 17.7776C83.7359 18.976 83.9275 20.0762 84.3107 21.0786C84.6939 22.0807 85.2283 22.9433 85.914 23.6665C86.5997 24.3898 87.4317 24.9528 88.4098 25.3558C89.3879 25.7587 90.4618 25.9601 91.6316 25.9601C93.7087 25.9601 95.4129 25.4023 96.744 24.2864C98.075 23.1707 98.8818 21.5486 99.1641 19.4204H95.0197C94.8785 20.4122 94.5306 21.2025 93.9759 21.7915C93.4214 22.3803 92.6299 22.6747 91.6013 22.6747C90.9357 22.6747 90.3711 22.5198 89.9073 22.2098C89.4433 21.8999 89.0753 21.502 88.803 21.0165C88.5306 20.531 88.3342 19.9885 88.2131 19.3893C88.0922 18.79 88.0316 18.2012 88.0316 17.6227C88.0316 17.0234 88.0922 16.419 88.2131 15.8095C88.3342 15.1999 88.5408 14.6421 88.8333 14.1358C89.1258 13.6295 89.5038 13.2163 89.9676 12.8961C90.4315 12.5757 91.0064 12.4157 91.6921 12.4157C93.5273 12.4157 94.586 13.3351 94.8684 15.1742ZM79.0356 9.53307V4.72893H76.4643V9.53307H73.8022V11.8578H76.4643V22.0549C76.4643 22.7988 76.5349 23.3979 76.676 23.8526C76.8172 24.307 77.034 24.6585 77.3263 24.9064C77.6189 25.1543 78.0021 25.3247 78.476 25.4178C78.9498 25.5108 79.5196 25.5573 80.1853 25.5573H82.1515V23.2327H80.9717C80.5684 23.2327 80.2405 23.2172 79.9886 23.1862C79.7364 23.1551 79.5398 23.088 79.3987 22.9848C79.2574 22.8813 79.1617 22.7368 79.1113 22.5508C79.0608 22.3649 79.0356 22.117 79.0356 21.8069V11.8578H82.1515V9.53307H79.0356ZM73.0345 20.4741H70.4935C70.2716 21.5279 69.8127 22.3132 69.117 22.8297C68.4212 23.3463 67.5287 23.6047 66.4397 23.6047C65.5927 23.6047 64.8566 23.4599 64.2314 23.1707C63.6062 22.8813 63.0919 22.4938 62.6885 22.0083C62.2852 21.5227 61.9928 20.965 61.8112 20.3348C61.6298 19.7043 61.5491 19.0379 61.5693 18.3355H73.2765C73.3169 17.3643 73.2311 16.3416 73.0194 15.2671C72.8075 14.1925 72.4245 13.2007 71.8697 12.2916C71.3153 11.3825 70.579 10.6334 69.6615 10.0446C68.7439 9.45553 67.5893 9.16116 66.1977 9.16116C65.1289 9.16116 64.1456 9.36776 63.2482 9.78107C62.3508 10.1943 61.5743 10.7729 60.9188 11.5169C60.2634 12.2607 59.7541 13.1388 59.3911 14.1513C59.0283 15.1637 58.8466 16.2794 58.8466 17.4987C58.887 18.7178 59.0634 19.8438 59.3761 20.877C59.6886 21.9102 60.1575 22.7988 60.7828 23.5425C61.4079 24.2864 62.1794 24.865 63.097 25.2783C64.0146 25.6915 65.0986 25.8982 66.3489 25.8982C68.1238 25.8982 69.596 25.4435 70.7657 24.5345C71.9354 23.6252 72.6917 22.2719 73.0345 20.4741ZM70.5539 16.0109H61.5693C61.6096 15.391 61.7406 14.8074 61.9625 14.2597C62.1844 13.7122 62.487 13.2318 62.8701 12.8185C63.2533 12.4053 63.712 12.0797 64.2465 11.8423C64.7809 11.6046 65.3808 11.4858 66.0464 11.4858C66.6918 11.4858 67.2817 11.6046 67.8162 11.8423C68.3507 12.0797 68.8145 12.4001 69.2077 12.803C69.601 13.2059 69.9136 13.6864 70.1455 14.2443C70.3775 14.8023 70.5136 15.391 70.5539 16.0109ZM34.362 9.53307V25.5573H36.9334V15.5771C36.9334 15.2671 37.009 14.8796 37.1602 14.4148C37.3115 13.9499 37.5535 13.5004 37.8863 13.0665C38.219 12.6326 38.6526 12.2607 39.1871 11.9507C39.7215 11.6408 40.3618 11.4858 41.1081 11.4858C41.693 11.4858 42.1718 11.5736 42.5449 11.7493C42.9181 11.9248 43.2155 12.1727 43.4374 12.4931C43.6592 12.8133 43.8155 13.1906 43.9063 13.6244C43.997 14.0583 44.0424 14.5335 44.0424 15.0502V25.5573H46.6137V15.5771C46.6137 14.3372 46.9768 13.3454 47.7028 12.6015C48.4288 11.8578 49.4271 11.4858 50.6978 11.4858C51.3229 11.4858 51.8322 11.5788 52.2254 11.7648C52.6187 11.9507 52.9262 12.2038 53.1481 12.5241C53.3699 12.8443 53.5211 13.2215 53.6017 13.6554C53.6824 14.0893 53.7228 14.5543 53.7228 15.0502V25.5573H56.2941V13.8104C56.2941 12.9838 56.1681 12.2762 55.916 11.6872C55.6639 11.0983 55.311 10.6179 54.8573 10.246C54.4035 9.874 53.859 9.60029 53.2237 9.42465C52.5883 9.24892 51.8775 9.16116 51.091 9.16116C50.0624 9.16116 49.1196 9.39884 48.2625 9.874C47.4054 10.3493 46.7146 11.0208 46.1903 11.8888C45.8676 10.8969 45.313 10.1943 44.5264 9.78107C43.7398 9.36776 42.8626 9.16116 41.8946 9.16116C39.6962 9.16116 38.0123 10.0704 36.8426 11.8888H36.782V9.53307H34.362ZM16.6234 17.5607C16.6234 18.7385 16.7847 19.8335 17.1074 20.8461C17.43 21.8585 17.9141 22.7418 18.5594 23.4961C19.2048 24.2504 20.0014 24.8391 20.9493 25.2629C21.8972 25.6863 22.9862 25.8982 24.2165 25.8982C25.4668 25.8982 26.5609 25.6863 27.4987 25.2629C28.4365 24.8391 29.228 24.2504 29.8735 23.4961C30.5187 22.7418 31.0028 21.8585 31.3255 20.8461C31.6482 19.8335 31.8095 18.7385 31.8095 17.5607C31.8095 16.3829 31.6482 15.2826 31.3255 14.2597C31.0028 13.237 30.5187 12.3484 29.8735 11.5942C29.228 10.84 28.4365 10.246 27.4987 9.81205C26.5609 9.3782 25.4668 9.16116 24.2165 9.16116C22.9862 9.16116 21.8972 9.3782 20.9493 9.81205C20.0014 10.246 19.2048 10.84 18.5594 11.5942C17.9141 12.3484 17.43 13.237 17.1074 14.2597C16.7847 15.2826 16.6234 16.3829 16.6234 17.5607ZM19.346 17.5607C19.346 16.5895 19.472 15.7269 19.7241 14.9726C19.9763 14.2183 20.3241 13.583 20.7677 13.0665C21.2115 12.5499 21.7308 12.1572 22.3257 11.8888C22.9207 11.6201 23.5509 11.4858 24.2165 11.4858C24.8819 11.4858 25.5122 11.6201 26.1072 11.8888C26.7021 12.1572 27.2214 12.5499 27.6651 13.0665C28.1087 13.583 28.4566 14.2183 28.7088 14.9726C28.9608 15.7269 29.0869 16.5895 29.0869 17.5607C29.0869 18.5317 28.9608 19.3945 28.7088 20.1487C28.4566 20.9029 28.1087 21.5331 27.6651 22.0394C27.2214 22.5456 26.7021 22.933 26.1072 23.2017C25.5122 23.4703 24.8819 23.6047 24.2165 23.6047C23.5509 23.6047 22.9207 23.4703 22.3257 23.2017C21.7308 22.933 21.2115 22.5456 20.7677 22.0394C20.3241 21.5331 19.9763 20.9029 19.7241 20.1487C19.472 19.3945 19.346 18.5317 19.346 17.5607ZM12.3163 14.6782H14.9785C14.8776 13.7277 14.6356 12.9064 14.2524 12.2141C13.8692 11.5218 13.3802 10.9484 12.7852 10.4939C12.1902 10.0394 11.5046 9.70364 10.7281 9.4866C9.95161 9.26957 9.1198 9.16116 8.23243 9.16116C7.00214 9.16116 5.92318 9.38335 4.99548 9.82753C4.06776 10.2718 3.29638 10.8813 2.68123 11.6564C2.06619 12.4311 1.60737 13.3402 1.30479 14.3838C1.00231 15.4272 0.851074 16.5482 0.851074 17.7467C0.851074 18.945 1.00731 20.0454 1.31998 21.0476C1.63254 22.0496 2.09645 22.9123 2.71149 23.6356C3.32664 24.3588 4.09304 24.9166 5.01066 25.3094C5.92828 25.7018 6.98196 25.8982 8.1719 25.8982C10.1685 25.8982 11.7466 25.3609 12.9062 24.2864C14.0658 23.212 14.7869 21.6829 15.0692 19.6993H12.4372C12.276 20.9392 11.8373 21.8999 11.1214 22.5818C10.4054 23.2636 9.41219 23.6047 8.14163 23.6047C7.33489 23.6047 6.63913 23.4392 6.05424 23.1087C5.46947 22.778 4.99548 22.339 4.63246 21.7915C4.26945 21.2438 4.00223 20.6188 3.83082 19.9163C3.65939 19.2137 3.57368 18.4905 3.57368 17.7467C3.57368 16.9408 3.6543 16.1608 3.81572 15.4065C3.97706 14.6523 4.24428 13.9859 4.61738 13.4074C4.99048 12.8289 5.48965 12.364 6.11479 12.0127C6.74002 11.6613 7.5165 11.4858 8.44412 11.4858C9.53326 11.4858 10.4004 11.7648 11.0457 12.3226C11.6912 12.8805 12.1146 13.6657 12.3163 14.6782Z" fill="white"/>
<mask id="mask0_1_642" style="mask-type:alpha" maskUnits="userSpaceOnUse" x="145" y="0" width="11" height="11">
<path d="M155.687 0H145.756V10.3192H155.687V0Z" fill="#161616"/>
</mask>
<g mask="url(#mask0_1_642)">
<path fill-rule="evenodd" clip-rule="evenodd" d="M150.763 4.86997C150.933 4.86997 151.098 4.86306 151.256 4.84927C151.414 4.83548 151.552 4.79642 151.668 4.7319C151.786 4.66781 151.881 4.57803 151.953 4.463C152.025 4.34807 152.062 4.18485 152.062 3.97325C152.062 3.79858 152.023 3.66062 151.946 3.55927C151.869 3.45824 151.772 3.38004 151.656 3.32475C151.538 3.26967 151.407 3.23518 151.263 3.22139C151.119 3.20759 150.979 3.20069 150.843 3.20069H149.734V4.86997H150.763ZM149.734 8.11194H148.814V2.40044H150.938C151.615 2.40044 152.124 2.52937 152.467 2.78682C152.81 3.04438 152.981 3.46271 152.981 4.04212C152.981 4.55744 152.842 4.93438 152.561 5.17336C152.282 5.41267 151.935 5.55518 151.52 5.60113L153.089 8.11194H152.048L150.6 5.67011H149.734V8.11194ZM154.605 5.15957C154.605 4.5343 154.505 3.95946 154.308 3.43511C154.109 2.91099 153.834 2.4604 153.481 2.08314C153.13 1.7062 152.719 1.41415 152.25 1.20712C151.781 1.00018 151.276 0.896823 150.736 0.896823C150.185 0.896823 149.673 1.00018 149.199 1.20712C148.726 1.41415 148.313 1.7062 147.962 2.08314C147.61 2.4604 147.334 2.91099 147.136 3.43511C146.937 3.95946 146.839 4.5343 146.839 5.15957C146.839 5.74832 146.928 6.30014 147.109 6.81515C147.289 7.33037 147.549 7.78085 147.887 8.16702C148.225 8.5534 148.633 8.85924 149.111 9.08453C149.589 9.30993 150.131 9.42242 150.736 9.42242C151.276 9.42242 151.781 9.31905 152.25 9.11212C152.719 8.90508 153.13 8.61325 153.481 8.2361C153.834 7.85906 154.109 7.41069 154.308 6.89102C154.505 6.37146 154.605 5.79427 154.605 5.15957ZM155.687 5.15957C155.687 5.93223 155.553 6.63581 155.288 7.27041C155.022 7.905 154.661 8.4477 154.206 8.89829C153.75 9.34899 153.222 9.69844 152.622 9.94676C152.023 10.1951 151.393 10.3192 150.736 10.3192C150.004 10.3192 149.335 10.1881 148.726 9.92606C148.118 9.66395 147.594 9.30303 147.157 8.843C146.719 8.38329 146.377 7.83836 146.128 7.20822C145.88 6.57851 145.756 5.89551 145.756 5.15957C145.756 4.38701 145.889 3.68343 146.155 3.04894C146.421 2.41424 146.783 1.87174 147.238 1.42106C147.694 0.97047 148.223 0.620909 148.827 0.372589C149.432 0.12416 150.067 0 150.736 0C151.393 0 152.023 0.12416 152.622 0.372589C153.222 0.620909 153.75 0.97047 154.206 1.42106C154.661 1.87174 155.022 2.41424 155.288 3.04894C155.553 3.68343 155.687 4.38701 155.687 5.15957Z" fill="white"/>
</g>
</svg>
