<svg width="151" height="62" viewBox="0 0 151 62" fill="none" xmlns="http://www.w3.org/2000/svg">
<path d="M63.8988 44.7985V38.1886H72.6424V33.9317H63.8988V30.7854H73.567V26.2905H58.7742V44.7985H63.8988ZM79.6954 45.1158C80.6464 45.1158 81.4608 44.9527 82.1389 44.6267C82.8169 44.3006 83.4024 43.8644 83.8955 43.3179V44.7985H88.8617V36.5757C88.8617 35.571 88.7427 34.694 88.505 33.9449C88.2673 33.1958 87.8755 32.5568 87.3295 32.028C86.766 31.464 86.0396 31.0321 85.1503 30.7325C84.2609 30.4328 83.1734 30.283 81.8879 30.283C80.6552 30.283 79.5854 30.3843 78.6785 30.5871C77.7714 30.7898 76.913 31.0586 76.1028 31.3934L77.1331 34.9365C77.767 34.6896 78.3922 34.4957 79.0086 34.3548C79.6249 34.2137 80.3118 34.1433 81.069 34.1433C82.0376 34.1433 82.7552 34.346 83.2219 34.7513C83.6885 35.1568 83.9219 35.7296 83.9219 36.47V36.7079C83.5168 36.5669 83.0105 36.4391 82.403 36.3245C81.7955 36.21 81.1571 36.1527 80.4879 36.1527C79.6426 36.1527 78.8765 36.2496 78.1897 36.4435C77.5029 36.6374 76.9174 36.9194 76.433 37.2895C75.9487 37.6598 75.5702 38.1268 75.2972 38.6909C75.0242 39.255 74.8877 39.9071 74.8877 40.6474V40.7003C74.8877 41.423 75.0111 42.0576 75.2576 42.6041C75.5041 43.1504 75.8432 43.6088 76.2745 43.9789C76.706 44.3491 77.2123 44.6311 77.7935 44.825C78.3746 45.0188 79.0086 45.1158 79.6954 45.1158ZM81.4917 41.9694C80.981 41.9694 80.5583 41.8329 80.2237 41.5597C79.8891 41.2864 79.7218 40.903 79.7218 40.4095V40.3566C79.7218 39.8278 79.92 39.4004 80.3162 39.0742C80.7124 38.7482 81.2803 38.5851 82.02 38.5851C82.3898 38.5851 82.7465 38.6204 83.0898 38.6909C83.4332 38.7614 83.7282 38.8495 83.9748 38.9553V39.6163C83.9748 40.3389 83.7459 40.9118 83.2879 41.3349C82.8301 41.7579 82.2313 41.9694 81.4917 41.9694ZM96.6543 29.199V25.4973H91.424V29.199H96.6543ZM96.5486 44.7985V30.4945H91.5296V44.7985H96.5486ZM104.473 44.7985V25.4973H99.4544V44.7985H104.473ZM114.564 45.1423C115.708 45.1423 116.765 44.9439 117.734 44.5473C118.703 44.1507 119.539 43.6132 120.244 42.9345C120.948 42.2559 121.498 41.4627 121.894 40.555C122.291 39.6471 122.489 38.6821 122.489 37.6597V37.6068C122.489 36.5845 122.295 35.6239 121.908 34.7249C121.52 33.826 120.974 33.0416 120.27 32.3718C119.565 31.7019 118.733 31.1687 117.774 30.7722C116.814 30.3755 115.762 30.1772 114.616 30.1772C113.473 30.1772 112.416 30.3755 111.447 30.7722C110.479 31.1687 109.642 31.7063 108.938 32.3849C108.233 33.0636 107.683 33.8568 107.287 34.7645C106.89 35.6724 106.692 36.6374 106.692 37.6597V37.7127C106.692 38.735 106.886 39.6956 107.273 40.5945C107.661 41.4935 108.207 42.2823 108.911 42.9609C109.616 43.6395 110.448 44.1727 111.407 44.5606C112.367 44.9483 113.419 45.1423 114.564 45.1423ZM114.616 40.8854C114.177 40.8854 113.772 40.7973 113.401 40.621C113.032 40.4447 112.711 40.2112 112.438 39.9203C112.165 39.6295 111.953 39.2901 111.804 38.9024C111.654 38.5147 111.579 38.1004 111.579 37.6597V37.6068C111.579 37.1838 111.65 36.7784 111.79 36.3906C111.931 36.0028 112.129 35.6636 112.385 35.3727C112.641 35.0818 112.953 34.8527 113.322 34.6852C113.693 34.5178 114.107 34.434 114.564 34.434C115.004 34.434 115.409 34.5222 115.78 34.6984C116.149 34.8748 116.47 35.1083 116.744 35.3992C117.016 35.69 117.228 36.0292 117.377 36.4171C117.527 36.8048 117.602 37.2191 117.602 37.6597V37.7127C117.602 38.1357 117.532 38.541 117.391 38.9289C117.249 39.3166 117.051 39.6559 116.796 39.9468C116.54 40.2377 116.228 40.4668 115.859 40.6342C115.489 40.8017 115.074 40.8854 114.616 40.8854ZM129.622 44.7985V40.3566C129.622 38.6997 129.973 37.4835 130.677 36.7079C131.382 35.9324 132.394 35.5445 133.716 35.5445H134.139V30.2566C132.94 30.2037 131.99 30.4681 131.286 31.0498C130.581 31.6314 130.026 32.407 129.622 33.3765V30.4945H124.603V44.7985H129.622ZM140.134 49.1082C140.839 49.1082 141.464 49.02 142.01 48.8438C142.556 48.6676 143.041 48.3944 143.463 48.0242C143.885 47.6541 144.264 47.1737 144.598 46.5832C144.933 45.9927 145.26 45.2832 145.576 44.4548L150.807 30.4945H145.655L142.962 39.1139L140.108 30.4945H134.851L140.452 44.5341C140.293 44.7633 140.121 44.9174 139.937 44.9968C139.751 45.0762 139.535 45.1158 139.289 45.1158C139.007 45.1158 138.673 45.0497 138.285 44.9174C137.898 44.7853 137.502 44.5958 137.097 44.3491L135.538 47.8656C136.207 48.2358 136.916 48.5353 137.664 48.7645C138.413 48.9937 139.237 49.1082 140.134 49.1082Z" fill="white"/>
<path d="M44.4907 20.8901H0.651855V54.362H44.4907V20.8901Z" fill="white"/>
<path fill-rule="evenodd" clip-rule="evenodd" d="M1.35425 21.3798V53.4221L33.3904 43.9911V9.52368L1.35425 21.3798Z" fill="white" stroke="black" stroke-width="2"/>
<path fill-rule="evenodd" clip-rule="evenodd" d="M1.21362 21.1459V53.2882L22.009 38.8782V3L1.21362 21.1459Z" fill="white" stroke="black" stroke-width="2"/>
<path fill-rule="evenodd" clip-rule="evenodd" d="M30.1592 53.7991L37.8885 61.5355V53.9218" fill="white"/>
</svg>
