<svg width="160" height="36" viewBox="0 0 160 36" fill="none" xmlns="http://www.w3.org/2000/svg">
<mask id="mask0_1_599" style="mask-type:luminance" maskUnits="userSpaceOnUse" x="0" y="0" width="160" height="36">
<path d="M159.791 0H0.325195V35.0428H159.791V0Z" fill="white"/>
</mask>
<g mask="url(#mask0_1_599)">
<path d="M11.9262 8.54248C11.9262 7.41924 12.3154 6.33069 13.0276 5.46194C13.7397 4.59318 14.731 3.99789 15.8326 3.77729L26.036 1.73898C26.7408 1.59835 27.4681 1.61577 28.1653 1.79C28.8627 1.96421 29.5126 2.2909 30.0684 2.74652C30.6241 3.20213 31.0719 3.77531 31.3793 4.42478C31.6868 5.07425 31.8464 5.7838 31.8464 6.50235V6.56064C31.8446 7.68216 31.4545 8.76849 30.7425 9.63515C30.0303 10.5018 29.0402 11.0953 27.9401 11.3149L21.8853 12.5262V16.5081C21.8853 17.6314 21.4963 18.7198 20.784 19.5887C20.0718 20.4574 19.0806 21.0527 17.979 21.2733L5.87153 23.6941C4.76985 23.914 3.77851 24.5089 3.06623 25.3774C2.35396 26.2459 1.96483 27.3344 1.96509 28.4574V28.5066C1.96514 29.2253 2.12471 29.9351 2.4323 30.5848C2.73988 31.2344 3.18781 31.8076 3.74379 32.2633C4.29977 32.719 4.94994 33.0456 5.64748 33.2196C6.34499 33.3937 7.07243 33.411 7.77739 33.2701L8.01788 33.2227C9.11987 33.0024 10.1115 32.4073 10.824 31.5385C11.5366 30.6698 11.9261 29.581 11.9262 28.4574V8.54248Z" stroke="white" stroke-width="2.90105" stroke-miterlimit="10"/>
<path d="M45.6174 19.7142V27.3629H41.8987V7.64648H54.2888V11.142H45.6812H45.5903V11.2331V16.1513V16.2424H45.6812H53.3375V19.6231H45.7087H45.6174V19.7142Z" fill="white" stroke="white" stroke-width="0.16117"/>
<path d="M56.0994 27.3629V7.64648H59.6507V27.3629H56.0994Z" fill="white" stroke="white" stroke-width="0.16117"/>
<path d="M75.7354 20.5484C75.7354 24.7373 72.66 27.7836 68.5837 27.7836C64.5077 27.7836 61.4324 24.7373 61.4324 20.5484C61.4324 16.3595 64.5077 13.3169 68.5837 13.3169C72.6604 13.3169 75.7354 16.3343 75.7354 20.5484ZM72.1841 20.5484C72.1841 19.2239 71.7559 18.2177 71.0872 17.5425C70.4191 16.8679 69.5178 16.5301 68.5837 16.5301C67.65 16.5301 66.7486 16.8679 66.0804 17.5425C65.4119 18.2177 64.9833 19.2239 64.9833 20.5484C64.9833 21.873 65.4119 22.8795 66.0804 23.5551C66.7486 24.2303 67.65 24.5686 68.5837 24.5686C69.5178 24.5686 70.4191 24.2308 71.0872 23.5558C71.7559 22.8804 72.1841 21.8739 72.1841 20.5484Z" fill="white" stroke="white" stroke-width="0.16117"/>
<path d="M91.879 22.5664L94.4109 13.7378H97.9227L93.6578 27.363H90.0675L86.8597 17.9944L86.7729 17.7405L86.6871 17.9948L83.5361 27.363H79.8783L75.5288 13.7378H79.2656L81.7975 22.5392L81.878 22.8186L81.9714 22.5432L84.9585 13.7378H88.7578L91.7051 22.5701L91.798 22.8488L91.879 22.5664Z" fill="white" stroke="white" stroke-width="0.16117"/>
<path d="M102.59 25.7691V27.3629H99.1284V7.64648H102.632V15.1604V15.4762L102.8 15.2089C103.398 14.2593 104.881 13.3716 106.914 13.3716C108.909 13.3716 110.478 14.14 111.548 15.4096C112.621 16.6811 113.2 18.4621 113.2 20.4939C113.2 22.5702 112.56 24.3716 111.44 25.6526C110.321 26.9325 108.719 27.6981 106.779 27.6981C104.897 27.6981 103.469 26.8691 102.759 25.7211L102.59 25.4486V25.7691ZM106.111 16.5302C105.148 16.5302 104.26 16.8827 103.614 17.5616C102.968 18.2407 102.568 19.2396 102.568 20.5211C102.568 21.7893 102.968 22.7951 103.613 23.4845C104.259 24.174 105.147 24.5413 106.111 24.5413C107.089 24.5413 107.97 24.1817 108.606 23.495C109.242 22.8086 109.627 21.8027 109.627 20.5211C109.627 19.2396 109.242 18.2407 108.606 17.5615C107.969 16.882 107.088 16.5302 106.111 16.5302Z" fill="white" stroke="white" stroke-width="0.16117"/>
<path d="M124.559 25.5722L124.385 25.5352C123.813 26.8173 122.415 27.7544 120.594 27.7544C118.584 27.7544 116.918 26.972 115.754 25.6765C114.59 24.3799 113.923 22.5646 113.923 20.4938C113.923 16.4918 116.529 13.3442 120.484 13.3442C122.916 13.3442 124.034 14.6403 124.356 15.3929L124.532 15.3569V13.7376H127.97V24.9584C127.97 26.0869 128.041 26.979 128.074 27.3664H124.688C124.605 26.8299 124.562 26.2879 124.559 25.745C124.559 25.7449 124.559 25.7451 124.559 25.745V25.5722ZM121.044 24.7106C122.04 24.7106 122.914 24.2986 123.538 23.5624C124.162 22.8269 124.532 21.7733 124.532 20.4938C124.532 19.2145 124.169 18.1896 123.547 17.4831C122.925 16.7757 122.05 16.3952 121.044 16.3952C120.025 16.3952 119.135 16.7764 118.503 17.4839C117.87 18.1908 117.5 19.2158 117.5 20.4938C117.5 21.7595 117.863 22.8131 118.491 23.5521C119.119 24.2922 120.008 24.7106 121.044 24.7106Z" fill="white"/>
<path d="M124.559 25.745C124.562 26.2879 124.605 26.8299 124.688 27.3664H128.074C128.041 26.979 127.97 26.0869 127.97 24.9584V13.7376H124.532V15.3569L124.356 15.3929C124.034 14.6403 122.916 13.3442 120.484 13.3442C116.529 13.3442 113.923 16.4918 113.923 20.4938C113.923 22.5646 114.59 24.3799 115.754 25.6765C116.918 26.972 118.584 27.7544 120.594 27.7544C122.415 27.7544 123.813 26.8173 124.385 25.5352L124.559 25.5722V25.745ZM124.559 25.745C124.559 25.7449 124.559 25.7451 124.559 25.745ZM121.044 24.7106C122.04 24.7106 122.914 24.2986 123.538 23.5624C124.162 22.8269 124.532 21.7733 124.532 20.4938C124.532 19.2145 124.169 18.1896 123.547 17.4831C122.925 16.7757 122.05 16.3952 121.044 16.3952C120.025 16.3952 119.135 16.7764 118.503 17.4839C117.87 18.1908 117.5 19.2158 117.5 20.4938C117.5 21.7595 117.863 22.8131 118.491 23.5521C119.119 24.2922 120.008 24.7106 121.044 24.7106Z" stroke="white" stroke-width="0.16117"/>
<path d="M133.78 21.7803C132.461 21.4883 131.511 20.9493 130.892 20.2517C130.273 19.5551 129.978 18.6934 129.978 17.7432C129.978 15.3329 132.113 13.3169 135.052 13.3169C136.996 13.3169 138.285 13.9339 139.108 14.7258C139.903 15.4904 140.269 16.4237 140.368 17.1388L137.428 17.8006C137.357 17.4039 137.175 16.9657 136.829 16.6167C136.453 16.2366 135.887 15.9691 135.079 15.9691C134.071 15.9691 133.221 16.5773 133.221 17.4353C133.221 17.7967 133.357 18.094 133.597 18.3179C133.833 18.5397 134.167 18.6856 134.557 18.7579L136.521 19.1784L136.523 19.1785C137.869 19.4571 138.875 20.0043 139.543 20.7243C140.211 21.4434 140.547 22.34 140.547 23.328C140.547 24.4268 140.122 25.5412 139.253 26.3811C138.384 27.2203 137.067 27.7909 135.276 27.7909C133.22 27.7909 131.847 27.125 130.968 26.273C130.117 25.4487 129.722 24.4452 129.623 23.6869L132.64 23.0184C132.702 23.5477 132.932 24.0541 133.342 24.4357C133.778 24.843 134.413 25.1023 135.246 25.1023C135.879 25.1023 136.358 24.937 136.68 24.6672C137.002 24.3966 137.16 24.0269 137.16 23.636C137.16 23.3043 137.046 22.9997 136.788 22.75C136.534 22.5026 136.144 22.315 135.601 22.2008L133.78 21.7803Z" fill="white" stroke="white" stroke-width="0.16117"/>
<path d="M154.671 21.4395H144.874H144.779L144.784 21.5348C144.87 23.4109 146.459 24.7638 148.355 24.7638C149.241 24.7638 149.934 24.5424 150.464 24.1577C150.972 23.7896 151.323 23.2767 151.553 22.6805L154.502 23.5626C153.783 25.8715 151.642 27.7821 148.328 27.7821C144.585 27.7821 141.288 25.0966 141.288 20.4923C141.288 16.1356 144.502 13.3154 147.991 13.3154C150.104 13.3154 151.782 13.9888 152.934 15.2019C154.086 16.4156 154.719 18.1797 154.719 20.3794C154.719 20.6434 154.706 20.9145 154.692 21.1275C154.685 21.2337 154.678 21.3254 154.673 21.3944V21.4051C154.672 21.4171 154.671 21.4286 154.671 21.4395ZM151.133 19.0751H151.228L151.225 18.9803C151.196 18.2748 150.95 17.5687 150.433 17.0384C149.913 16.5069 149.127 16.1606 148.036 16.1606C146.046 16.1606 144.946 17.6614 144.859 18.978L144.852 19.0751H144.949H151.133Z" fill="white" stroke="white" stroke-width="0.16117"/>
<path d="M156.071 5.67723H155.98V5.76833V7.46417H155.562V5.76833V5.67723H155.472H154.901V5.32568H156.634V5.67723H156.071ZM158.523 6.62929L159.046 5.32568H159.695V7.46417H159.298V6.14355L159.122 6.10962L158.578 7.46417H158.27L157.72 6.12895L157.545 6.1636V7.46417H157.148V5.32568H157.811L158.353 6.63033L158.439 6.83591L158.523 6.62929Z" fill="white" stroke="white" stroke-width="0.16117"/>
</g>
</svg>
