<svg width="114" height="136" viewBox="0 0 114 136" fill="none" xmlns="http://www.w3.org/2000/svg">
<path fill-rule="evenodd" clip-rule="evenodd" d="M49.3204 64.329C48.8321 61.1767 48.9286 58.5357 49.1241 56.5055C51.0656 37.0958 67.3917 29.9691 83.3104 28.64C87.5755 28.2814 94.1809 29.2695 98.6385 32.3086C101.772 34.4427 103.864 37.5633 103.579 41.8549C103.285 46.5341 100.155 50.7735 95.8724 54.2624C89.682 59.3135 81.1012 62.8194 75.9418 64.0122C69.9905 65.3861 60.6293 66.4535 51.423 66.2234C52.2018 69.5705 53.6647 73.4137 56.3309 77.6471C57.5095 79.5334 59.3154 81.3297 61.4685 82.9353C64.1401 79.579 67.5355 76.6161 71.6078 74.2495C75.0335 72.2652 82.9132 69.5174 89.3142 69.59C93.8831 69.6457 97.6854 71.1609 98.9997 75.0254C100.625 79.8274 98.814 83.538 95.5279 86.2345C90.9025 90.0339 83.2488 91.7291 78.984 91.6006C74.0222 91.4483 67.1873 88.9591 61.8081 85.3463C53.3244 97.176 53.7715 113.488 64.6515 124.906C64.9716 125.249 64.9672 125.824 64.6437 126.189C64.305 126.551 63.7594 126.563 63.4393 126.22C51.9301 114.137 51.4306 96.8726 60.3943 84.3441C58.1067 82.6292 56.1702 80.7067 54.9093 78.6923C51.9752 74.0269 50.4238 69.805 49.649 66.1632C47.926 66.0886 46.2143 65.9649 44.5316 65.7845C36.9743 64.9787 30.1597 63.0261 26.2118 59.4368C17.0878 51.1437 16.8571 38.8185 21.46 27.8977C26.0225 17.0829 35.3191 7.68815 45.1648 5.06857C45.6239 4.94679 46.0823 5.244 46.1782 5.72934C46.2741 6.21485 45.9849 6.70905 45.5259 6.83066C36.1563 9.32313 27.3379 18.3051 23.0071 28.5982C18.7166 38.7854 18.8297 50.3026 27.3322 58.0361C31.0975 61.4472 37.5725 63.2104 44.7556 63.9774C46.2514 64.1372 47.7738 64.2515 49.3204 64.329ZM62.8828 83.936C65.4047 80.8142 68.5785 78.0508 72.3911 75.8417C75.6513 73.9522 83.134 71.3344 89.2474 71.4077C93.0365 71.4527 96.3116 72.4838 97.3939 75.691C98.7286 79.6059 97.1914 82.6103 94.515 84.8076C90.2192 88.3541 83.0618 89.9044 79.0825 89.7839C74.4213 89.6438 67.9632 87.3212 62.8828 83.936ZM51.0611 64.396C50.5373 61.2592 50.6287 58.6404 50.817 56.6414C52.6548 38.2377 68.2999 31.712 83.3888 30.4509C87.3613 30.115 93.5247 31.0121 97.6934 33.8494C100.301 35.6307 102.12 38.2019 101.886 41.7898C101.624 45.9828 98.7085 49.7054 94.8762 52.8328C88.902 57.7075 80.6061 61.0847 75.6317 62.237C69.6802 63.6113 60.2723 64.6746 51.0611 64.396Z" fill="white"/>
<path fill-rule="evenodd" clip-rule="evenodd" d="M63.5594 124.925C63.4506 124.01 63.1468 121.374 63.111 120.974C63.0177 119.853 63.1194 119.271 63.2849 118.691C63.4237 118.226 63.6261 117.762 63.7848 116.864C63.8671 116.367 64.3268 116.035 64.7873 116.115C65.2478 116.195 65.5398 116.661 65.4575 117.158C65.3028 117.969 65.1397 118.47 64.9914 118.906C64.8273 119.412 64.7198 119.81 64.8056 120.755C64.8433 121.216 65.3152 123.746 65.3102 124.948C65.3097 125.575 65.1311 126.004 64.9799 126.176C64.7637 126.422 64.4299 126.623 63.9637 126.707C63.3649 126.811 62.4244 126.736 61.3684 126.677C60.376 126.619 59.2522 126.577 58.2123 126.795C57.3387 126.984 56.5332 127.363 55.9947 128.177C55.7232 128.594 55.2014 128.711 54.8181 128.434C54.4349 128.157 54.3416 127.591 54.6131 127.174C55.4084 125.937 56.6083 125.301 57.9348 125.016C59.1099 124.766 60.3804 124.795 61.5141 124.863C62.192 124.901 62.8184 124.954 63.3151 124.946C63.395 124.945 63.4772 124.935 63.5594 124.925Z" fill="white"/>
</svg>
