<svg width="19" height="18" viewBox="0 0 19 18" fill="none" xmlns="http://www.w3.org/2000/svg">
<path d="M9.16333 0C11.6086 0 11.9137 0.00899995 12.8731 0.0539999C13.8316 0.0989999 14.4841 0.2493 15.0583 0.4725C15.6523 0.7011 16.1527 1.0107 16.6531 1.5102C17.1108 1.96011 17.4649 2.50433 17.6908 3.105C17.9131 3.6783 18.0643 4.3317 18.1093 5.2902C18.1516 6.2496 18.1633 6.5547 18.1633 9C18.1633 11.4453 18.1543 11.7504 18.1093 12.7098C18.0643 13.6683 17.9131 14.3208 17.6908 14.895C17.4655 15.496 17.1113 16.0404 16.6531 16.4898C16.2031 16.9473 15.6589 17.3014 15.0583 17.5275C14.485 17.7498 13.8316 17.901 12.8731 17.946C11.9137 17.9883 11.6086 18 9.16333 18C6.71803 18 6.41293 17.991 5.45353 17.946C4.49503 17.901 3.84253 17.7498 3.26833 17.5275C2.66742 17.302 2.1231 16.9479 1.67353 16.4898C1.2158 16.04 0.861668 15.4957 0.63583 14.895C0.41263 14.3217 0.26233 13.6683 0.21733 12.7098C0.17503 11.7504 0.16333 11.4453 0.16333 9C0.16333 6.5547 0.17233 6.2496 0.21733 5.2902C0.26233 4.3308 0.41263 3.6792 0.63583 3.105C0.861043 2.50396 1.21525 1.95959 1.67353 1.5102C2.12323 1.05231 2.66752 0.698156 3.26833 0.4725C3.84253 0.2493 4.49413 0.0989999 5.45353 0.0539999C6.41293 0.0116999 6.71803 0 9.16333 0ZM9.16333 4.5C7.96986 4.5 6.82526 4.97411 5.98135 5.81802C5.13744 6.66193 4.66333 7.80653 4.66333 9C4.66333 10.1935 5.13744 11.3381 5.98135 12.182C6.82526 13.0259 7.96986 13.5 9.16333 13.5C10.3568 13.5 11.5014 13.0259 12.3453 12.182C13.1892 11.3381 13.6633 10.1935 13.6633 9C13.6633 7.80653 13.1892 6.66193 12.3453 5.81802C11.5014 4.97411 10.3568 4.5 9.16333 4.5ZM15.0133 4.275C15.0133 3.97663 14.8948 3.69048 14.6838 3.4795C14.4728 3.26853 14.1867 3.15 13.8883 3.15C13.59 3.15 13.3038 3.26853 13.0928 3.4795C12.8819 3.69048 12.7633 3.97663 12.7633 4.275C12.7633 4.57337 12.8819 4.85952 13.0928 5.0705C13.3038 5.28147 13.59 5.4 13.8883 5.4C14.1867 5.4 14.4728 5.28147 14.6838 5.0705C14.8948 4.85952 15.0133 4.57337 15.0133 4.275ZM9.16333 6.3C9.87941 6.3 10.5662 6.58446 11.0725 7.09081C11.5789 7.59716 11.8633 8.28392 11.8633 9C11.8633 9.71608 11.5789 10.4028 11.0725 10.9092C10.5662 11.4155 9.87941 11.7 9.16333 11.7C8.44725 11.7 7.76049 11.4155 7.25414 10.9092C6.74779 10.4028 6.46333 9.71608 6.46333 9C6.46333 8.28392 6.74779 7.59716 7.25414 7.09081C7.76049 6.58446 8.44725 6.3 9.16333 6.3Z" fill="white"/>
</svg>
