<svg width="35" height="35" viewBox="0 0 35 35" fill="none" xmlns="http://www.w3.org/2000/svg">
<path d="M17.2696 0C26.7269 0 34.4025 7.67553 34.4025 17.1329C34.4025 26.5902 26.727 34.2658 17.2697 34.2658C7.81231 34.2658 0.136764 26.5902 0.136743 17.1329C0.136721 7.67553 7.81223 0 17.2696 0ZM10.3651 18.0409L15.505 23.1808C15.7619 23.4378 16.0875 23.5577 16.413 23.5577C16.7385 23.5577 17.064 23.4378 17.321 23.1808C17.8179 22.6839 17.8179 21.8616 17.321 21.3647L14.3742 18.4179H23.2661C23.9686 18.4179 24.5511 17.8353 24.5511 17.1329C24.5511 16.4304 23.9686 15.8479 23.2661 15.8479L14.3742 15.8479L17.321 12.9011C17.8179 12.4042 17.8179 11.5818 17.321 11.085C16.8242 10.5881 16.0018 10.5881 15.5049 11.085L10.3651 16.2248C9.86822 16.7217 9.86822 17.5441 10.3651 18.0409Z" fill="white"/>
</svg>
