<svg width="20" height="18" viewBox="0 0 20 18" fill="none" xmlns="http://www.w3.org/2000/svg">
<path d="M4.93653 2.17562C4.93653 3.37718 3.92397 4.35124 2.67493 4.35124C1.42588 4.35124 0.41333 3.37718 0.41333 2.17562C0.41333 0.974058 1.42588 0 2.67493 0C3.92397 0 4.93653 0.974058 4.93653 2.17562Z" fill="white"/>
<path d="M0.722608 5.95041H4.58859V18H0.722608V5.95041Z" fill="white"/>
<path d="M10.8128 5.95041H6.94684V18H10.8128C10.8128 18 10.8128 14.2066 10.8128 11.8348C10.8128 10.4112 11.2854 8.9814 13.1711 8.9814C15.3021 8.9814 15.2893 10.8444 15.2793 12.2877C15.2663 14.1743 15.2973 16.0995 15.2973 18H19.1633V11.6405C19.1306 7.57977 18.1019 5.70868 14.7175 5.70868C12.7076 5.70868 11.4617 6.64722 10.8128 7.49635V5.95041Z" fill="white"/>
</svg>
