<svg width="228" height="33" viewBox="0 0 228 33" fill="none" xmlns="http://www.w3.org/2000/svg">
<mask id="mask0_1_577" style="mask-type:luminance" maskUnits="userSpaceOnUse" x="0" y="0" width="228" height="33">
<path d="M227.213 0H0V32.9701H227.213V0Z" fill="white"/>
</mask>
<g mask="url(#mask0_1_577)">
<path fill-rule="evenodd" clip-rule="evenodd" d="M39.9194 13.3809L45.4063 25.6983C46.5164 28.1908 45.395 31.1111 42.9012 32.2209C40.4073 33.3305 37.4854 32.2096 36.3753 29.7172L31.9399 19.76L29.9849 24.3626V13.3809H39.9194Z" fill="white"/>
<path fill-rule="evenodd" clip-rule="evenodd" d="M40.5133 14.7153L41.6483 17.2638C40.9626 17.0258 40.226 16.8963 39.4591 16.8963C36.2913 16.8963 33.6399 19.1038 32.9645 22.0618L31.9391 19.7595L30.8521 22.3188V14.7153H40.5133Z" fill="black" fill-opacity="0.2"/>
<path fill-rule="evenodd" clip-rule="evenodd" d="M24.0009 13.1643V21.8867H14.8601L13.9124 19.7596L13.009 21.8867H2.89819V20.4067L9.23521 5.48535C10.0367 3.59817 11.8743 2.4674 13.8045 2.47415C15.7032 2.46754 17.5179 3.56108 18.3398 5.40626L22.9247 15.6984L24.0009 13.1643Z" fill="white"/>
<path fill-rule="evenodd" clip-rule="evenodd" d="M22.9177 15.6836L22.9243 15.6984L27.2618 5.48535C28.0632 3.59817 29.9009 2.4674 31.831 2.47415C33.7297 2.46754 35.5444 3.56108 36.3663 5.40626L41.6438 17.2536C40.5796 16.335 39.1931 15.7795 37.6765 15.7795C35.0416 15.7795 32.7986 17.4566 31.9576 19.8013L31.9392 19.7596L27.6781 29.7922C26.6115 32.3039 23.7098 33.4757 21.1968 32.4095C20.9549 32.3069 20.7215 32.1856 20.4987 32.0459C19.5771 31.5453 18.8072 30.7484 18.3477 29.7168L13.9292 19.7982C14.5943 19.9886 15.2968 20.0905 16.0231 20.0905C19.0792 20.0905 21.7137 18.2854 22.9177 15.6836Z" fill="white"/>
<path fill-rule="evenodd" clip-rule="evenodd" d="M13.8849 19.8242L10.7031 27.3163C9.92719 27.6723 9.06254 27.8703 8.15095 27.8703C4.95334 27.8703 2.33273 25.4306 2.09375 22.3008L4.2773 17.1593C5.32876 16.2892 6.6787 15.7661 8.15095 15.7661C10.801 15.7661 13.0548 17.4607 13.8849 19.8242Z" fill="white"/>
<path fill-rule="evenodd" clip-rule="evenodd" d="M12.9508 22.0229L9.65124 29.7919C8.58465 32.3036 5.68285 33.4755 3.17002 32.4095C0.65716 31.3431 -0.515184 28.443 0.551417 25.9315L4.21525 17.3045C4.99083 16.9613 5.84864 16.7708 6.75078 16.7708C9.86538 16.7708 12.4511 19.0419 12.9508 22.0229Z" fill="white"/>
<path d="M58.519 26.0695H61.936V13.1054L67.7394 21.0446H68.1414L73.92 13.3566V26.0695H77.3618V7.35205H74.0958L68.0158 15.7937L61.7852 7.35205H58.519V26.0695Z" fill="white"/>
<path d="M87.1504 26.3707C88.5407 26.3707 89.755 26.0608 90.7935 25.4411C91.8488 24.8047 92.5856 24.0007 93.0043 23.0293L90.3413 21.7228C90.0397 22.242 89.6211 22.6691 89.0849 23.0041C88.5658 23.3224 87.9294 23.4815 87.1757 23.4815C86.1874 23.4815 85.3582 23.1801 84.6884 22.577C84.0182 21.9741 83.6331 21.17 83.5327 20.1651H93.3813C93.4482 19.9809 93.49 19.7715 93.5067 19.537C93.5402 19.2858 93.5571 19.0345 93.5571 18.7833C93.5571 17.5607 93.2974 16.4468 92.7783 15.4419C92.2589 14.4368 91.5053 13.6329 90.5171 13.0299C89.5288 12.4102 88.3231 12.1003 86.8991 12.1003C85.6263 12.1003 84.4706 12.4102 83.4321 13.0299C82.4103 13.6497 81.5981 14.4955 80.9953 15.5674C80.4089 16.6226 80.1157 17.837 80.1157 19.2104C80.1157 20.5336 80.4089 21.7396 80.9953 22.8283C81.5812 23.917 82.4019 24.7796 83.4573 25.416C84.5125 26.0525 85.7434 26.3707 87.1504 26.3707ZM86.8991 14.8137C87.7701 14.8137 88.4904 15.0818 89.0598 15.6177C89.6461 16.137 89.9728 16.8153 90.0397 17.6527H83.6081C83.7923 16.7483 84.1775 16.0532 84.7638 15.5674C85.3666 15.065 86.0785 14.8137 86.8991 14.8137Z" fill="white"/>
<path d="M96.052 26.0693H99.343V18.0547C99.343 17.167 99.5859 16.4552 100.072 15.9192C100.557 15.3832 101.194 15.1151 101.981 15.1151C102.785 15.1151 103.422 15.3832 103.891 15.9192C104.376 16.4384 104.619 17.1503 104.619 18.0547V26.0693H107.91V18.0547C107.91 17.167 108.153 16.4552 108.639 15.9192C109.125 15.3832 109.761 15.1151 110.548 15.1151C111.352 15.1151 111.989 15.3832 112.458 15.9192C112.944 16.4384 113.187 17.1503 113.187 18.0547V26.0693H116.478V17.2758C116.478 16.2541 116.252 15.3581 115.799 14.5876C115.364 13.8004 114.769 13.189 114.016 12.7535C113.262 12.3181 112.399 12.1003 111.428 12.1003C110.523 12.1003 109.703 12.2846 108.966 12.6531C108.246 13.0216 107.651 13.5743 107.182 14.3113C106.78 13.6413 106.202 13.1053 105.448 12.7033C104.711 12.3013 103.882 12.1003 102.961 12.1003C102.107 12.1003 101.345 12.2678 100.675 12.6028C100.005 12.9378 99.4938 13.4402 99.1422 14.1102V12.4018H96.052V26.0693Z" fill="white"/>
<path d="M126.723 26.3709C128.047 26.3709 129.228 26.061 130.266 25.4413C131.304 24.8049 132.126 23.9506 132.728 22.8786C133.331 21.7899 133.632 20.5757 133.632 19.2357C133.632 17.8957 133.331 16.6898 132.728 15.6179C132.126 14.5291 131.304 13.6749 130.266 13.0552C129.228 12.4187 128.055 12.1005 126.749 12.1005C124.973 12.1005 123.575 12.6616 122.553 13.7838V7.35205H119.262V26.0695H122.352V24.5369C122.854 25.1231 123.483 25.5755 124.236 25.8936C125.007 26.2118 125.836 26.3709 126.723 26.3709ZM126.347 23.356C125.626 23.356 124.973 23.1801 124.387 22.8284C123.818 22.4768 123.365 21.991 123.03 21.3713C122.712 20.7515 122.553 20.0396 122.553 19.2357C122.553 18.4317 122.712 17.7199 123.03 17.1002C123.365 16.4804 123.818 15.9947 124.387 15.643C124.973 15.2913 125.626 15.1153 126.347 15.1153C127.1 15.1153 127.761 15.2996 128.331 15.6681C128.918 16.0199 129.379 16.5055 129.714 17.1253C130.049 17.745 130.215 18.4485 130.215 19.2357C130.215 20.023 130.049 20.7347 129.714 21.3713C129.379 21.991 128.918 22.4768 128.331 22.8284C127.761 23.1801 127.1 23.356 126.347 23.356Z" fill="white"/>
<path d="M142.624 26.3707C144.014 26.3707 145.229 26.0608 146.267 25.4411C147.322 24.8047 148.06 24.0007 148.479 23.0293L145.814 21.7228C145.513 22.242 145.094 22.6691 144.559 23.0041C144.04 23.3224 143.402 23.4815 142.65 23.4815C141.661 23.4815 140.832 23.1801 140.162 22.577C139.492 21.9741 139.107 21.17 139.007 20.1651H148.854C148.922 19.9809 148.963 19.7715 148.98 19.537C149.014 19.2858 149.031 19.0345 149.031 18.7833C149.031 17.5607 148.77 16.4468 148.251 15.4419C147.732 14.4368 146.978 13.6329 145.991 13.0299C145.002 12.4102 143.796 12.1003 142.373 12.1003C141.1 12.1003 139.943 12.4102 138.905 13.0299C137.883 13.6497 137.071 14.4955 136.469 15.5674C135.883 16.6226 135.59 17.837 135.59 19.2104C135.59 20.5336 135.883 21.7396 136.469 22.8283C137.054 23.917 137.876 24.7796 138.931 25.416C139.985 26.0525 141.217 26.3707 142.624 26.3707ZM142.373 14.8137C143.244 14.8137 143.963 15.0818 144.533 15.6177C145.12 16.137 145.446 16.8153 145.513 17.6527H139.082C139.266 16.7483 139.652 16.0532 140.237 15.5674C140.84 15.065 141.552 14.8137 142.373 14.8137Z" fill="white"/>
<path d="M151.526 26.069H154.817V18.4564C154.817 17.4179 155.103 16.6139 155.671 16.0445C156.258 15.4582 157.012 15.1651 157.933 15.1651H159.114V12.2507H158.309C157.473 12.2507 156.735 12.4015 156.099 12.7029C155.462 13.0044 154.968 13.5488 154.616 14.3361V12.4015H151.526V26.069Z" fill="white"/>
<path d="M166.124 26.3707C167.162 26.3707 168.066 26.1948 168.837 25.8431C169.607 25.4914 170.21 25.0056 170.645 24.3859C171.081 23.7495 171.299 23.0209 171.299 22.2001C171.299 21.2454 170.997 20.4247 170.394 19.738C169.791 19.0513 168.92 18.5489 167.782 18.2306L165.596 17.5774C165.126 17.4434 164.742 17.2674 164.439 17.0498C164.139 16.8321 163.988 16.5305 163.988 16.1452C163.988 15.7433 164.146 15.4167 164.465 15.1654C164.783 14.9142 165.219 14.7885 165.771 14.7885C166.459 14.7885 167.078 14.9729 167.631 15.3413C168.201 15.7098 168.594 16.2039 168.811 16.8237L171.324 15.6428C170.906 14.5373 170.202 13.6748 169.213 13.055C168.226 12.4186 167.086 12.1003 165.796 12.1003C164.809 12.1003 163.929 12.2762 163.159 12.6279C162.405 12.9796 161.811 13.4738 161.375 14.1102C160.956 14.73 160.747 15.4585 160.747 16.296C160.747 17.2339 161.04 18.0463 161.627 18.733C162.23 19.4197 163.108 19.9307 164.264 20.2656L166.501 20.8937C166.936 21.011 167.304 21.1868 167.605 21.4214C167.924 21.6391 168.083 21.9405 168.083 22.3258C168.083 22.7781 167.898 23.1382 167.53 23.4061C167.179 23.6573 166.709 23.783 166.124 23.783C165.353 23.783 164.658 23.5653 164.038 23.1298C163.418 22.6943 162.924 22.0913 162.556 21.3208L160.093 22.5017C160.496 23.6741 161.233 24.6121 162.304 25.3156C163.394 26.0189 164.667 26.3707 166.124 26.3707Z" fill="white"/>
<path d="M180.059 26.2201C180.612 26.2201 181.155 26.1782 181.692 26.0943V23.2552C181.374 23.3055 181.081 23.3306 180.813 23.3306C180.008 23.3306 179.423 23.1465 179.053 22.778C178.685 22.4095 178.501 21.8818 178.501 21.1951V15.3413H181.642V12.4017H178.501V9.28638H175.21V10.3416C175.21 11.0116 175.026 11.5224 174.658 11.8742C174.288 12.2259 173.769 12.4017 173.1 12.4017H172.849V15.3413H175.21V21.371C175.21 22.8951 175.629 24.0844 176.467 24.9387C177.321 25.7929 178.518 26.2201 180.059 26.2201Z" fill="white"/>
<path d="M188.279 26.3707C190.053 26.3707 191.478 25.7846 192.549 24.6121V26.0693H195.665V16.9744C195.665 16.0197 195.422 15.1738 194.935 14.4368C194.45 13.7 193.78 13.1304 192.926 12.7284C192.088 12.3097 191.108 12.1003 189.986 12.1003C188.613 12.1003 187.39 12.4269 186.319 13.0801C185.246 13.7333 184.51 14.596 184.108 15.6679L186.796 16.9744C187.048 16.3547 187.441 15.8605 187.977 15.492C188.512 15.1068 189.141 14.9142 189.861 14.9142C190.615 14.9142 191.217 15.1151 191.669 15.5172C192.139 15.9024 192.374 16.3882 192.374 16.9744V17.4266L188.303 18.0798C186.696 18.3478 185.507 18.8587 184.736 19.6124C183.966 20.3662 183.58 21.3125 183.58 22.4515C183.58 23.6573 184.008 24.6121 184.862 25.3156C185.716 26.0189 186.855 26.3707 188.279 26.3707ZM186.997 22.3258C186.997 21.3711 187.642 20.768 188.931 20.5168L192.374 19.939V20.4917C192.374 21.4298 192.046 22.2253 191.394 22.8786C190.757 23.5318 189.92 23.8584 188.881 23.8584C188.328 23.8584 187.877 23.7244 187.525 23.4564C187.173 23.1717 186.997 22.7948 186.997 22.3258Z" fill="white"/>
<path d="M205.29 26.3707C206.278 26.3707 207.19 26.2033 208.028 25.8681C208.866 25.5165 209.587 25.0391 210.188 24.4362C210.791 23.8165 211.228 23.1214 211.496 22.3509L208.607 21.0445C208.338 21.7647 207.911 22.3342 207.325 22.7529C206.755 23.1549 206.077 23.3559 205.29 23.3559C204.569 23.3559 203.924 23.1801 203.356 22.8283C202.802 22.4766 202.367 21.9908 202.048 21.3711C201.731 20.7345 201.572 20.0228 201.572 19.2356C201.572 18.4316 201.731 17.7197 202.048 17.1C202.367 16.4803 202.802 15.9946 203.356 15.6428C203.924 15.2911 204.569 15.1151 205.29 15.1151C206.077 15.1151 206.755 15.3246 207.325 15.7433C207.911 16.1621 208.338 16.7148 208.607 17.4015L211.496 16.1452C211.21 15.3413 210.767 14.6379 210.164 14.0349C209.561 13.4151 208.84 12.9378 208.004 12.6028C207.166 12.2678 206.261 12.1003 205.29 12.1003C203.933 12.1003 202.711 12.4102 201.622 13.0299C200.55 13.6497 199.704 14.4955 199.084 15.5674C198.465 16.6394 198.155 17.8538 198.155 19.2104C198.155 20.5671 198.465 21.7899 199.084 22.8786C199.704 23.9505 200.55 24.8047 201.622 25.4411C202.711 26.0608 203.933 26.3707 205.29 26.3707Z" fill="white"/>
<path d="M213.992 26.0689H217.283V21.8982L219.041 19.9889L222.886 26.0689H226.655L221.504 17.9036L226.555 12.4014H222.458L217.283 17.8282V7.27612H213.992V26.0689Z" fill="white"/>
</g>
</svg>
