<svg width="45" height="32" viewBox="0 0 45 32" fill="none" xmlns="http://www.w3.org/2000/svg">
<rect x="0.5" y="0.5" width="44" height="30.7647" rx="4.79412" fill="#1A1A1A" stroke="#333333"/>
<path fill-rule="evenodd" clip-rule="evenodd" d="M28.5582 24.3925C33.5147 24.3925 37.5327 20.4223 37.5327 15.5249C37.5327 10.6274 33.5147 6.65723 28.5582 6.65723C26.3368 6.65723 24.304 7.4547 22.7368 8.77571C21.1697 7.45479 19.1369 6.65738 16.9156 6.65738C11.9592 6.65738 7.94116 10.6276 7.94116 15.525C7.94116 20.4225 11.9592 24.3927 16.9156 24.3927C19.137 24.3927 21.1699 23.5952 22.737 22.2742C24.3041 23.5951 26.3369 24.3925 28.5582 24.3925Z" fill="#ED0006"/>
<path fill-rule="evenodd" clip-rule="evenodd" d="M22.7368 22.2741C24.6664 20.6476 25.89 18.2274 25.89 15.5249C25.89 12.8223 24.6664 10.4021 22.7368 8.77562C24.3039 7.45466 26.3368 6.65723 28.5581 6.65723C33.5146 6.65723 37.5326 10.6274 37.5326 15.5249C37.5326 20.4223 33.5146 24.3925 28.5581 24.3925C26.3368 24.3925 24.3039 23.5951 22.7368 22.2741Z" fill="#F9A000"/>
<path fill-rule="evenodd" clip-rule="evenodd" d="M22.7369 22.2739C24.6665 20.6474 25.89 18.2272 25.89 15.5246C25.89 12.8221 24.6665 10.4019 22.7369 8.77539C20.8073 10.4019 19.5837 12.8221 19.5837 15.5246C19.5837 18.2272 20.8073 20.6474 22.7369 22.2739Z" fill="#FF5E00"/>
</svg>
