<svg width="46" height="32" viewBox="0 0 46 32" fill="none" xmlns="http://www.w3.org/2000/svg">
<rect x="0.400001" y="0.400001" width="45.2" height="31.2" rx="3.83531" fill="#161616" stroke="#333333" stroke-width="0.800002"/>
<path d="M6.27244 20.3042H6.52669L6.28861 21.2927C6.25231 21.4381 6.26036 21.551 6.30874 21.6237C6.35719 21.6964 6.44597 21.7327 6.5791 21.7327C6.7082 21.7327 6.81717 21.6964 6.90192 21.6237C6.98667 21.551 7.04317 21.4381 7.07947 21.2927L7.31755 20.3042H7.57576L7.33365 21.317C7.28118 21.5349 7.18838 21.7004 7.05122 21.8093C6.91803 21.9183 6.74047 21.9748 6.5226 21.9748C6.30472 21.9748 6.15542 21.9224 6.07469 21.8134C5.99397 21.7044 5.97787 21.539 6.03034 21.3211L6.27244 20.3042Z" fill="white"/>
<path d="M7.53889 21.9309L7.94237 20.2402L8.709 21.2329C8.7292 21.261 8.74933 21.2894 8.76953 21.3216C8.78973 21.3539 8.80986 21.3902 8.83408 21.4305L9.10436 20.3047H9.34244L8.93896 21.9915L8.15615 20.9786C8.13595 20.9503 8.11582 20.9221 8.09563 20.8939C8.07543 20.8616 8.05932 20.8333 8.04725 20.7969L7.77689 21.9267H7.53882L7.53889 21.9309Z" fill="white"/>
<path d="M9.32275 21.9303L9.71013 20.3042H9.96834L9.58103 21.9303H9.32275Z" fill="white"/>
<path d="M9.94807 21.9303L10.3354 20.3042H11.2191L11.1666 20.5302H10.5412L10.4443 20.9336H11.0698L11.0133 21.1637H10.3878L10.2063 21.9262H9.948L9.94807 21.9303Z" fill="white"/>
<path d="M11.1184 21.9303L11.5058 20.3042H11.764L11.3766 21.9303H11.1184Z" fill="white"/>
<path d="M11.7434 21.9303L12.1307 20.3042H13.0144L12.962 20.5302H12.3366L12.2398 20.9377H12.8652L12.8087 21.1677H12.1833L12.0582 21.6923H12.6836L12.6271 21.9303H11.7434Z" fill="white"/>
<path d="M12.926 21.9303L13.3134 20.3042H13.6604C13.8863 20.3042 14.0437 20.3163 14.1284 20.3405C14.2132 20.3648 14.2858 20.4011 14.3423 20.4575C14.4149 20.5301 14.4633 20.623 14.4835 20.7318C14.5037 20.8449 14.4956 20.9739 14.4634 21.1152C14.4271 21.2604 14.3746 21.3855 14.302 21.4984C14.2294 21.6115 14.1365 21.7002 14.0276 21.7728C13.9469 21.8293 13.8581 21.8657 13.7613 21.8898C13.6685 21.9141 13.5273 21.9261 13.3417 21.9261H13.2731H12.9261L12.926 21.9303ZM13.2408 21.6882H13.4587C13.5757 21.6882 13.6685 21.6803 13.7331 21.6641C13.7976 21.648 13.8541 21.6196 13.9065 21.5833C13.9791 21.5308 14.0397 21.4663 14.0881 21.3856C14.1365 21.3089 14.1728 21.2162 14.197 21.1112C14.2212 21.0063 14.2293 20.9175 14.2171 20.8409C14.205 20.7642 14.1768 20.6956 14.1283 20.6431C14.092 20.6029 14.0476 20.5786 13.9871 20.5625C13.9266 20.5464 13.8338 20.5383 13.7006 20.5383H13.6078H13.515L13.2408 21.6882Z" fill="white"/>
<path d="M15.6498 21.2001L15.4762 21.9303H15.2341L15.6215 20.3042H16.0129C16.1299 20.3042 16.2107 20.3123 16.2631 20.3244C16.3155 20.3365 16.3559 20.3567 16.3881 20.3889C16.4285 20.4253 16.4567 20.4777 16.4689 20.5423C16.4809 20.607 16.4769 20.6754 16.4608 20.7521C16.4406 20.8288 16.4124 20.9013 16.368 20.966C16.3237 21.0306 16.2712 21.0831 16.2147 21.1194C16.1663 21.1475 16.1138 21.1717 16.0573 21.1839C16.0008 21.196 15.9121 21.2041 15.7991 21.2041H15.7467H15.6498V21.2001H15.6498ZM15.7183 20.9822H15.7829C15.9241 20.9822 16.025 20.9661 16.0815 20.9337C16.138 20.9014 16.1743 20.845 16.1945 20.7643C16.2146 20.6795 16.2025 20.615 16.1622 20.5827C16.1179 20.5464 16.0291 20.5303 15.896 20.5303H15.8314L15.7183 20.9822Z" fill="white"/>
<path d="M17.336 21.9309L17.2553 21.5113H16.6258L16.3434 21.9309H16.073L17.2431 20.2402L17.6063 21.9309H17.336ZM16.7791 21.2894H17.2189L17.1463 20.918C17.1423 20.8939 17.1382 20.8655 17.1382 20.8374C17.1342 20.8051 17.1342 20.7728 17.1342 20.7365C17.1181 20.7728 17.1019 20.8051 17.0817 20.8374C17.0656 20.8696 17.0495 20.898 17.0333 20.9221L16.7791 21.2894Z" fill="white"/>
<path d="M17.9782 21.9312L18.1558 21.1889L17.833 20.3092H18.1034L18.3051 20.862C18.3092 20.8781 18.3132 20.8943 18.3212 20.9184C18.3294 20.9427 18.3334 20.9669 18.3414 20.991C18.3575 20.9669 18.3737 20.9427 18.3898 20.9184C18.406 20.8942 18.4221 20.874 18.4383 20.8538L18.9104 20.3091H19.1686L18.414 21.1847L18.2365 21.927H17.9783L17.9782 21.9312Z" fill="white"/>
<path d="M20.4355 21.1279C20.4355 21.1158 20.4396 21.0795 20.4476 21.023C20.4516 20.9746 20.4557 20.9382 20.4597 20.906C20.4436 20.9423 20.4274 20.9787 20.4072 21.0189C20.3871 21.0552 20.3629 21.0956 20.3346 21.132L19.7132 21.9995L19.5115 21.1159C19.5034 21.0796 19.4954 21.0432 19.4913 21.011C19.4873 20.9787 19.4832 20.9424 19.4832 20.9101C19.4751 20.9424 19.463 20.9787 19.4509 21.0189C19.4389 21.0552 19.4227 21.0956 19.4025 21.1361L19.0393 21.935H18.8013L19.5801 20.2403L19.802 21.2652C19.806 21.2813 19.81 21.3096 19.814 21.3459C19.8181 21.3822 19.8261 21.4306 19.8342 21.4871C19.8624 21.4387 19.8987 21.3822 19.9472 21.3095C19.9592 21.2894 19.9714 21.2772 19.9754 21.2651L20.6775 20.2402L20.6533 21.935H20.4152L20.4355 21.1279Z" fill="white"/>
<path d="M20.8633 21.9303L21.2507 20.3042H22.1343L22.0819 20.5302H21.4565L21.3596 20.9377H21.985L21.9285 21.1677H21.3031L21.178 21.6923H21.8034L21.7469 21.9303H20.8633Z" fill="white"/>
<path d="M22.0413 21.9309L22.4447 20.2402L23.2114 21.2329C23.2316 21.261 23.2518 21.2894 23.272 21.3216C23.292 21.3539 23.3122 21.3902 23.3365 21.4305L23.6069 20.3047H23.8449L23.4415 21.9915L22.6587 20.9786C22.6385 20.9503 22.6183 20.9221 22.5981 20.8939C22.578 20.8616 22.5618 20.8333 22.5497 20.7969L22.2793 21.9267H22.0413V21.9309Z" fill="white"/>
<path d="M24.6678 20.5273L24.3329 21.9274H24.0747L24.4096 20.5273H23.99L24.0423 20.3013H25.1398L25.0874 20.5273H24.6678Z" fill="white"/>
<path d="M24.9378 21.6043L25.1678 21.5075C25.1718 21.5801 25.192 21.6365 25.2364 21.6729C25.2808 21.7092 25.3412 21.7294 25.422 21.7294C25.4986 21.7294 25.5633 21.7092 25.6197 21.6648C25.6762 21.6203 25.7126 21.564 25.7287 21.4913C25.7528 21.3944 25.6964 21.3096 25.5592 21.2371C25.539 21.2249 25.527 21.2169 25.5147 21.2128C25.3614 21.124 25.2647 21.0474 25.2242 20.9747C25.1839 20.9021 25.1758 20.8174 25.2 20.7165C25.2323 20.5833 25.3009 20.4784 25.4098 20.3937C25.5188 20.313 25.6398 20.2686 25.7852 20.2686C25.9021 20.2686 25.9948 20.2928 26.0635 20.3371C26.1321 20.3816 26.1684 20.4502 26.1805 20.535L25.9547 20.6399C25.9345 20.5874 25.9102 20.5511 25.878 20.5268C25.8457 20.5027 25.8053 20.4905 25.7569 20.4905C25.6883 20.4905 25.6279 20.5107 25.5794 20.547C25.5309 20.5833 25.4986 20.6318 25.4825 20.6963C25.4583 20.7932 25.527 20.8859 25.6842 20.9706C25.6964 20.9788 25.7044 20.9829 25.7125 20.9868C25.8497 21.0595 25.9424 21.1322 25.9828 21.2048C26.0232 21.2774 26.0312 21.3621 26.0071 21.4711C25.9708 21.6244 25.8941 21.7455 25.7771 21.8383C25.6601 21.927 25.5229 21.9756 25.3615 21.9756C25.2284 21.9756 25.1234 21.9431 25.0507 21.8787C24.9701 21.8142 24.9338 21.7213 24.9378 21.6043Z" fill="white"/>
<path d="M26.8389 21.9303L27.2262 20.3042H27.4845L27.0971 21.9303H26.8389Z" fill="white"/>
<path d="M27.4683 21.9309L27.8718 20.2402L28.6384 21.2329C28.6586 21.261 28.6787 21.2894 28.6989 21.3216C28.7191 21.3539 28.7393 21.3902 28.7635 21.4305L29.0339 20.3047H29.272L28.8684 21.9915L28.0857 20.9786C28.0655 20.9503 28.0453 20.9221 28.0252 20.8939C28.005 20.8616 27.9889 20.8333 27.9767 20.7969L27.7063 21.9267H27.4683V21.9309Z" fill="white"/>
<path d="M30.0946 20.5273L29.7598 21.9274H29.5015L29.8365 20.5273H29.4167L29.4692 20.3013H30.5667L30.5143 20.5273H30.0946Z" fill="white"/>
<path d="M30.3738 21.9303L30.7612 20.3042H31.6489L31.5964 20.5302H30.9709L30.8741 20.9377H31.4995L31.4431 21.1677H30.8176L30.6926 21.6923H31.318L31.2615 21.9303H30.3738Z" fill="white"/>
<path d="M31.9671 21.2012L31.7936 21.9274H31.5515L31.939 20.3013H32.2981C32.403 20.3013 32.4837 20.3094 32.5362 20.3215C32.5925 20.3337 32.637 20.3578 32.6693 20.39C32.7097 20.4304 32.7338 20.4788 32.7459 20.5434C32.7581 20.604 32.754 20.6725 32.7379 20.7492C32.7056 20.8783 32.6531 20.9833 32.5725 21.0558C32.4917 21.1285 32.3908 21.1729 32.2698 21.1891L32.637 21.9274H32.3465L31.9953 21.2012H31.9671ZM32.0316 20.9954H32.08C32.2172 20.9954 32.3101 20.9793 32.3625 20.947C32.415 20.9147 32.4513 20.8582 32.4715 20.7735C32.4915 20.6847 32.4836 20.6201 32.4432 20.5838C32.4029 20.5475 32.318 20.5273 32.189 20.5273H32.1406L32.0316 20.9954Z" fill="white"/>
<path d="M32.7945 21.9303L33.1818 20.3042H34.0654L34.0129 20.5302H33.3875L33.2907 20.9336H33.9161L33.8596 21.1637H33.2342L33.0527 21.9262H32.7944V21.9303H32.7945Z" fill="white"/>
<path d="M34.925 21.9309L34.8444 21.5113H34.215L33.9325 21.9309H33.6621L34.8322 20.2402L35.1953 21.9309H34.925ZM34.3642 21.2894H34.804L34.7313 20.918C34.7273 20.8939 34.7233 20.8655 34.7233 20.8374C34.7192 20.8051 34.7192 20.7728 34.7192 20.7365C34.7031 20.7728 34.6869 20.8051 34.6668 20.8374C34.6506 20.8696 34.6345 20.898 34.6184 20.9221L34.3642 21.2894Z" fill="white"/>
<path d="M36.8738 20.7003C36.8173 20.6358 36.7486 20.5874 36.6761 20.5591C36.6034 20.5268 36.5228 20.5107 36.4299 20.5107C36.2564 20.5107 36.103 20.5672 35.9658 20.6801C35.8287 20.7932 35.7398 20.9424 35.6955 21.124C35.6551 21.2975 35.6712 21.4429 35.752 21.5598C35.8287 21.6728 35.9497 21.7293 36.1112 21.7293C36.2039 21.7293 36.2968 21.7132 36.3895 21.6768C36.4824 21.6445 36.5752 21.592 36.672 21.5235L36.5993 21.822C36.5187 21.8745 36.4339 21.9108 36.3451 21.9351C36.2564 21.9592 36.1675 21.9714 36.0708 21.9714C35.9497 21.9714 35.8407 21.9512 35.748 21.9108C35.6551 21.8705 35.5786 21.8099 35.5179 21.7293C35.4575 21.6526 35.4211 21.5598 35.405 21.4549C35.3888 21.3499 35.3929 21.237 35.4252 21.116C35.4534 20.9949 35.5017 20.8859 35.5664 20.781C35.631 20.676 35.7157 20.5833 35.8125 20.5066C35.9092 20.426 36.0142 20.3655 36.1273 20.3251C36.2402 20.2847 36.3531 20.2646 36.4702 20.2646C36.5629 20.2646 36.6477 20.2767 36.7285 20.3049C36.8051 20.3332 36.8777 20.3735 36.9423 20.4301L36.8738 20.7003Z" fill="white"/>
<path d="M36.8984 21.9303L37.2857 20.3042H38.1693L38.1169 20.5302H37.4915L37.3947 20.9377H38.0201L37.9635 21.1677H37.3381L37.213 21.6923H37.8385L37.782 21.9303H36.8984Z" fill="white"/>
<path d="M32.2015 18.8891H30.4302L32.8915 10H34.6629L32.2015 18.8891Z" fill="white"/>
<path d="M31.2812 10.2796C31.1602 10.1101 30.9705 10.0254 30.7123 10.0254H20.9798L20.4996 11.7685H22.2709H29.3524L28.836 13.6287H21.7545V13.6246H19.9831L18.5144 18.9307H20.2858L21.2703 15.3718H29.2315C29.4816 15.3718 29.7157 15.287 29.9335 15.1176C30.1514 14.9481 30.2967 14.7383 30.3653 14.4881L31.3499 10.9293C31.4266 10.6629 31.4023 10.4491 31.2812 10.2796Z" fill="white"/>
<path d="M17.4816 18.3317C17.3848 18.6827 17.0619 18.9288 16.6988 18.9288H7.5676C7.31745 18.9288 7.13185 18.8441 7.0108 18.6746C6.88974 18.5051 6.86149 18.2953 6.93417 18.0451L9.1614 10.0235H10.9328L8.94352 17.1896H16.029L18.0183 10.0234H19.7897L17.4816 18.3317Z" fill="white"/>
<path d="M37.721 10.0171L39.9606 14.4717L35.2517 18.9264L37.721 10.0171Z" fill="#098041"/>
<path d="M36.1478 10.0171L38.3873 14.4717L33.6743 18.9264L36.1478 10.0171Z" fill="#E97626"/>
</svg>
