<svg width="45" height="32" viewBox="0 0 45 32" fill="none" xmlns="http://www.w3.org/2000/svg">
<rect x="0.5" y="0.5" width="44" height="30.7647" rx="4.79412" fill="#1A1A1A" stroke="#333333"/>
<path d="M18.5293 30.6762L43.6764 23.0659V26.7056C43.6764 28.8985 41.8987 30.6762 39.7058 30.6762H18.5293Z" fill="#FD6020"/>
<path fill-rule="evenodd" clip-rule="evenodd" d="M38.9036 12.0583C40.2871 12.0583 41.048 12.6983 41.048 13.9072C41.1172 14.8316 40.4946 15.6138 39.6646 15.756L41.5322 18.387H40.0796L38.4886 15.8271H38.3503V18.387H37.1743V12.0583H38.9036ZM38.3503 14.974H38.6961C39.457 14.974 39.8029 14.6185 39.8029 13.9785C39.8029 13.4096 39.457 13.0541 38.6961 13.0541H38.3503V14.974ZM33.0929 18.387H36.4132V17.3204H34.2688V15.6138H36.344V14.5471H34.2688V13.125H36.4132V12.0583H33.0929V18.387ZM29.6342 16.3249L28.0432 12.0583H26.798L29.3575 18.5293H29.98L32.5395 12.0583H31.2943L29.6342 16.3249ZM15.592 15.2579C15.592 17.0357 16.9755 18.5289 18.7048 18.5289C19.2582 18.5289 19.7424 18.3867 20.2266 18.1734V16.7512C19.8808 17.1779 19.3965 17.4623 18.8431 17.4623C17.7364 17.4623 16.8371 16.609 16.8371 15.4713V15.329C16.7679 14.1913 17.6672 13.1958 18.774 13.1246C19.3274 13.1246 19.8808 13.4091 20.2266 13.8357V12.4136C19.8116 12.1291 19.2582 12.058 18.774 12.058C16.9755 11.9158 15.592 13.4091 15.592 15.2579ZM13.4476 14.476C12.7558 14.1916 12.5483 14.0494 12.5483 13.6938C12.6175 13.2672 12.9634 12.9116 13.3784 12.9828C13.7243 12.9828 14.0701 13.1961 14.3468 13.4805L14.9694 12.6272C14.4852 12.2005 13.8626 11.9161 13.2401 11.9161C12.2716 11.845 11.4415 12.6272 11.3724 13.6227V13.6938C11.3724 14.5472 11.7182 15.0449 12.825 15.4005C13.1017 15.4716 13.3784 15.6138 13.6551 15.756C13.8626 15.8982 14.001 16.1116 14.001 16.396C14.001 16.8938 13.5859 17.3204 13.1709 17.3204H13.1017C12.5483 17.3204 12.0641 16.9649 11.8566 16.4671L11.0957 17.2493C11.5107 18.0315 12.3408 18.4582 13.1709 18.4582C14.2777 18.5293 15.1769 17.676 15.2461 16.5382V16.3249C15.1769 15.4716 14.831 15.0449 13.4476 14.476ZM9.43543 18.387H10.6114V12.0583H9.43543V18.387ZM3.9707 12.0583H5.70005H6.04592C7.70609 12.1294 9.0204 13.5516 8.95122 15.2582C8.95122 16.1827 8.53618 17.036 7.84444 17.6759C7.22188 18.1737 6.46096 18.4581 5.70005 18.387H3.9707V12.0583ZM5.49232 17.32C6.04571 17.3911 6.66827 17.1778 7.08332 16.8222C7.49836 16.3956 7.70588 15.8267 7.70588 15.1867C7.70588 14.6179 7.49836 14.049 7.08332 13.6223C6.66827 13.2668 6.04571 13.0535 5.49232 13.1246H5.14645V17.32H5.49232Z" fill="white"/>
<path fill-rule="evenodd" clip-rule="evenodd" d="M23.7543 11.9116C22.0249 11.9116 20.5723 13.3338 20.5723 15.1826C20.5723 16.9604 21.9557 18.4537 23.7543 18.5248C25.5528 18.5959 26.9363 17.1026 27.0054 15.2538C26.9363 13.4049 25.5528 11.9116 23.7543 11.9116V11.9116Z" fill="#FD6020"/>
</svg>
