<svg width="45" height="32" viewBox="0 0 45 32" fill="none" xmlns="http://www.w3.org/2000/svg">
<rect x="0.5" y="0.5" width="44" height="30.7647" rx="4.79412" fill="#1A1A1A" stroke="#333333"/>
<path fill-rule="evenodd" clip-rule="evenodd" d="M12.5064 11.0424C12.1287 11.5081 11.5244 11.8755 10.92 11.823C10.8445 11.1932 11.1404 10.5241 11.4866 10.1109C11.8643 9.632 12.5253 9.29089 13.0604 9.26465C13.1234 9.92063 12.8779 10.5635 12.5064 11.0424ZM13.054 11.9474C12.5216 11.9155 12.0358 12.1143 11.6434 12.2748C11.3908 12.3782 11.177 12.4657 11.0143 12.4657C10.8318 12.4657 10.6091 12.3735 10.3591 12.27C10.0315 12.1344 9.657 11.9793 9.26426 11.9868C8.36405 11.9999 7.52679 12.5313 7.06724 13.3775C6.12296 15.0699 6.82172 17.5757 7.73453 18.9533C8.18149 19.6355 8.71658 20.3833 9.42164 20.3571C9.73182 20.3449 9.95495 20.2462 10.1859 20.1441C10.4517 20.0266 10.7279 19.9045 11.1591 19.9045C11.5754 19.9045 11.8395 20.0234 12.093 20.1376C12.334 20.2461 12.5655 20.3504 12.9092 20.344C13.6394 20.3309 14.099 19.6618 14.5459 18.9795C15.0283 18.2473 15.2402 17.5327 15.2724 17.4243L15.2762 17.4117C15.2754 17.4109 15.2694 17.4081 15.2589 17.4031C15.0977 17.3262 13.8653 16.7383 13.8535 15.1617C13.8416 13.8385 14.831 13.168 14.9867 13.0625C14.9962 13.0561 15.0026 13.0517 15.0055 13.0495C14.376 12.0786 13.3939 11.9737 13.054 11.9474ZM18.1091 20.2721V10.0453H21.7917C23.6929 10.0453 25.0212 11.4098 25.0212 13.4039C25.0212 15.3981 23.6677 16.7757 21.7414 16.7757H19.6325V20.2721H18.1091ZM19.6323 11.3837H21.3886C22.7106 11.3837 23.466 12.1184 23.466 13.4107C23.466 14.703 22.7106 15.4442 21.3823 15.4442H19.6323V11.3837ZM30.0509 19.0453C29.6481 19.8456 28.7604 20.3507 27.8036 20.3507C26.3871 20.3507 25.3988 19.4717 25.3988 18.1466C25.3988 16.8346 26.3557 16.0802 28.1246 15.9687L30.0258 15.8507V15.2865C30.0258 14.4534 29.5033 14.0008 28.5716 14.0008C27.8036 14.0008 27.2433 14.4141 27.13 15.0438H25.7576C25.8017 13.7187 26.9978 12.7544 28.6156 12.7544C30.3594 12.7544 31.4925 13.7056 31.4925 15.1816V20.272H30.0824V19.0453H30.0509ZM28.2128 19.1374C27.4007 19.1374 26.8845 18.7307 26.8845 18.1075C26.8845 17.4646 27.3819 17.0907 28.3324 17.0317L30.0258 16.9202V17.4974C30.0258 18.4552 29.2452 19.1374 28.2128 19.1374ZM36.1699 20.6719C35.5593 22.4628 34.8605 23.0532 33.3748 23.0532C33.2615 23.0532 32.8838 23.04 32.7957 23.0138V21.7871C32.8901 21.8002 33.123 21.8133 33.2426 21.8133C33.9162 21.8133 34.2939 21.5182 34.5268 20.7507L34.6653 20.298L32.0843 12.8527H33.677L35.4711 18.8942H35.5026L37.2967 12.8527H38.8454L36.1699 20.6719Z" fill="white"/>
</svg>
