<svg width="134" height="22" viewBox="0 0 134 22" fill="none" xmlns="http://www.w3.org/2000/svg">
<mask id="mask0_1_613" style="mask-type:luminance" maskUnits="userSpaceOnUse" x="0" y="0" width="134" height="23">
<path d="M133.818 0H0.429688V22.0091H133.818V0Z" fill="white"/>
</mask>
<g mask="url(#mask0_1_613)">
<path d="M123.08 0H112.343V21.4756H133.818V10.7378C133.818 4.80199 129.016 0 123.08 0ZM4.20903 21.4533H0.451919V8.5591L0.429688 4.95761H3.89779V6.66943H3.92002C4.58697 5.58008 6.25432 4.46852 8.61085 4.46852C12.6347 4.46852 15.7027 7.11405 15.7027 12.4051V21.4311H11.9234V12.3384C11.9234 9.62621 10.6784 7.82547 8.05507 7.82547C5.45399 7.82547 4.20903 9.64843 4.20903 12.3384V21.4533Z" fill="white"/>
<path d="M35.1104 16.5402C34.11 19.6304 31.3534 21.9424 27.0404 21.9424C22.194 21.9424 18.6592 18.4743 18.6592 13.1388C18.6592 7.86992 22.3274 4.46852 26.9737 4.46852C31.5979 4.46852 34.9549 7.82547 34.9549 13.1165V14.1615H22.483C22.772 17.0737 24.5505 18.8078 27.2405 18.8078C29.3747 18.8078 30.5752 17.8518 31.0643 16.5402H35.1104ZM22.483 11.2936H31.0199C30.7975 9.18157 29.4414 7.40306 26.8626 7.40306C24.4172 7.40306 22.8165 9.22604 22.483 11.2936ZM46.2929 21.9424C41.7131 21.9424 37.756 18.9189 37.756 13.2055C37.756 7.53645 41.8465 4.46852 46.4263 4.46852C50.6057 4.46852 53.607 7.0029 54.2962 10.3154H50.3167C49.8498 8.95927 48.5605 7.86992 46.4263 7.86992C43.5584 7.86992 41.5353 9.9819 41.5353 13.2055C41.5353 16.4291 43.5584 18.5854 46.3817 18.5854C48.6272 18.5854 50.0055 17.4072 50.4279 16.0511H54.4296C53.7404 19.3413 50.4501 21.9424 46.2929 21.9424ZM65.7009 21.5867C61.8548 21.5867 59.365 19.6081 59.365 15.0952V8.27009H56.0747V4.97984H59.365V0H61.0767C62.2105 0 63.122 0.911486 63.122 2.04529V4.97984H67.7017V8.27009H63.122V14.8951C63.122 17.5406 64.7005 18.1853 66.4123 18.1853C66.9119 18.1878 67.4105 18.1431 67.9018 18.0519V21.3422C67.3904 21.4978 66.5234 21.5867 65.7009 21.5867ZM70.614 13.2499C70.614 8.07001 73.882 4.49075 78.9508 4.49075C80.9294 4.49075 83.5971 5.64678 84.2863 7.26968H84.3086V5.00207H87.9323L87.9101 8.60356V21.4978H84.2863V19.1857H84.2641C83.575 20.8086 80.9739 21.9647 78.9508 21.9647C73.882 21.9424 70.614 18.4299 70.614 13.2499ZM84.2641 13.2499C84.2641 9.89299 82.0854 7.93662 79.351 7.93662C76.5498 7.93662 74.4379 9.89299 74.4379 13.2499C74.4379 16.6069 76.5498 18.4966 79.351 18.4966C81.9743 18.4966 84.2641 16.6069 84.2641 13.2499ZM101.427 8.27009C98.2921 8.27009 96.3803 10.0486 96.3803 13.4055V21.4533H92.6231V8.5591L92.5787 4.95761H96.2023V7.66984H96.269C96.8916 5.82464 98.7367 4.46852 101.093 4.46852C101.76 4.46852 102.16 4.53521 102.16 4.53521V8.27009H101.427Z" fill="white"/>
</g>
</svg>
