<svg width="35" height="35" viewBox="0 0 35 35" fill="none" xmlns="http://www.w3.org/2000/svg">
<path d="M17.5353 0C8.078 0 0.402448 7.67553 0.402427 17.1329C0.402405 26.5902 8.07792 34.2658 17.5353 34.2658C26.9926 34.2658 34.6682 26.5902 34.6682 17.1329C34.6682 7.67553 26.9927 0 17.5353 0ZM24.4399 18.0409L19.3 23.1808C19.043 23.4378 18.7175 23.5577 18.3919 23.5577C18.0664 23.5577 17.7409 23.4378 17.4839 23.1808C16.987 22.6839 16.987 21.8616 17.4839 21.3647L20.4308 18.4179H11.5388C10.8363 18.4179 10.2538 17.8353 10.2538 17.1329C10.2538 16.4304 10.8364 15.8479 11.5388 15.8479L20.4308 15.8479L17.4839 12.9011C16.9871 12.4042 16.9871 11.5818 17.4839 11.085C17.9808 10.5881 18.8032 10.5881 19.3 11.085L24.4399 16.2248C24.9367 16.7217 24.9367 17.5441 24.4399 18.0409Z" fill="white"/>
</svg>
