<svg width="28" height="29" viewBox="0 0 28 29" fill="none" xmlns="http://www.w3.org/2000/svg">
<path d="M4.3889 4.61904C-1.15023 9.74019 -1.48947 18.392 3.63167 23.9312C8.7528 29.4703 17.4046 29.8095 22.9437 24.6884C28.4829 19.5672 28.8221 10.9154 23.701 5.37627C18.5798 -0.162865 9.92802 -0.502105 4.3889 4.61904ZM18.202 11.4467L17.9748 17.2404C17.9635 17.5301 17.8377 17.7766 17.6471 17.9528C17.4564 18.1291 17.2008 18.2351 16.9111 18.2238C16.3511 18.2018 15.9058 17.7202 15.9277 17.1601L16.058 13.8384L10.85 18.6534C10.4386 19.0338 9.78196 19.008 9.40159 18.5966C9.02122 18.1852 9.04696 17.5286 9.45838 17.1482L14.6664 12.3332L11.3447 12.203C10.7846 12.181 10.3393 11.6994 10.3613 11.1393C10.3832 10.5793 10.8649 10.1339 11.425 10.1559L17.2186 10.3831C17.7786 10.405 18.2239 10.8867 18.202 11.4467Z" fill="white"/>
</svg>
