<svg width="30" height="19" viewBox="0 0 30 19" fill="none" xmlns="http://www.w3.org/2000/svg">
<path d="M2.90447 4.43071L29.0089 0.0058268C29.093 -0.00785894 29.1794 0.00268434 29.2576 0.036183C29.3358 0.0696817 29.4024 0.124699 29.4495 0.19459C29.4965 0.26448 29.5219 0.346248 29.5226 0.430013C29.5233 0.513778 29.4993 0.595954 29.4535 0.666606L21.0604 13.4781C20.4665 14.2108 19.7131 14.8037 18.8554 15.2131C17.9977 15.6225 17.0576 15.8381 16.1039 15.8441C15.1503 15.85 14.2074 15.6461 13.3445 15.2474C12.4816 14.8487 11.7206 14.2653 11.1173 13.54C10.8846 13.2604 10.7157 12.9351 10.622 12.5859C10.5282 12.2367 10.5118 11.8719 10.5739 11.516C10.636 11.1601 10.7751 10.8214 10.9818 10.5227C11.1885 10.2241 11.458 9.97245 11.7722 9.78481L20.8051 4.3776L8.14637 9.7435C7.39375 10.0701 6.59242 10.2753 5.77325 10.3512C5.57799 10.3689 5.37673 10.3777 5.17246 10.3777C4.27979 10.4296 3.38752 10.2697 2.57102 9.91165C2.24659 9.75825 0.0506964 8.71398 0.167851 6.96173C0.207108 6.61577 0.316357 6.28099 0.489167 5.97704C0.661976 5.6731 0.894874 5.40613 1.17419 5.19178C1.67146 4.79102 2.26889 4.52824 2.90447 4.43071Z" fill="white"/>
<path d="M6.08911 10.165C7.27568 12.699 8.45924 15.4749 9.64581 18L14.1938 13.9881" stroke="white" stroke-width="0.800002" stroke-linecap="round" stroke-linejoin="round"/>
<path d="M10.8151 12.2295L8.82349 16.206" stroke="white" stroke-width="0.800002" stroke-linecap="round" stroke-linejoin="round"/>
</svg>
