<svg width="19" height="18" viewBox="0 0 19 18" fill="none" xmlns="http://www.w3.org/2000/svg">
<path d="M0 18L1.30473 13.2163C0.563873 11.8997 0.173713 10.4176 0.171116 8.90984C0.173946 6.54766 1.12132 4.28304 2.80541 2.61273C4.48951 0.942421 6.77283 0.0028071 9.15451 0C11.5362 0.0028071 13.8195 0.942421 15.5036 2.61273C17.1877 4.28304 18.135 6.54766 18.1379 8.90984C18.135 11.272 17.1877 13.5366 15.5036 15.2069C13.8195 16.8773 11.5362 17.8169 9.15451 17.8197C7.66154 17.8268 6.19066 17.4621 4.87671 16.759L0 18ZM5.13336 14.8922L5.44351 15.0725C6.56086 15.7528 7.84349 16.1194 9.15451 16.1332C10.1127 16.1304 11.061 15.9401 11.9449 15.5732C12.8288 15.2063 13.6311 14.67 14.3057 13.995C14.9803 13.3201 15.5139 12.5197 15.876 11.6398C16.2382 10.7599 16.4217 9.81778 16.4161 8.86741C16.4132 6.95253 15.645 5.11687 14.2798 3.76284C12.9146 2.40881 11.0638 1.64688 9.13311 1.64408C7.20242 1.64688 5.35161 2.40881 3.9864 3.76284C2.62119 5.11687 1.85299 6.95253 1.85016 8.86741C1.85457 10.189 2.22448 11.4841 2.91961 12.6117L3.10141 12.9193L2.37418 15.6134L5.13336 14.8922Z" fill="white"/>
<path fill-rule="evenodd" clip-rule="evenodd" d="M12.8965 10.3377C12.7112 10.1952 12.4945 10.0953 12.263 10.0457C12.0314 9.996 11.7911 9.99785 11.5604 10.0511C11.2181 10.1891 10.9973 10.7092 10.7764 10.9746C10.7295 11.0389 10.6587 11.0835 10.5786 11.0993C10.4986 11.1151 10.4153 11.1009 10.3458 11.0595C9.08473 10.5817 8.02707 9.71078 7.34233 8.58625C7.31331 8.55141 7.29171 8.51141 7.27878 8.46854C7.26585 8.42567 7.26184 8.38078 7.26697 8.33642C7.2721 8.29205 7.28626 8.2491 7.30867 8.21C7.33108 8.17091 7.36128 8.13645 7.39755 8.10858C7.6508 7.87491 7.83716 7.58244 7.93861 7.25939C7.97091 6.8901 7.88622 6.52006 7.69569 6.1979C7.55696 5.75873 7.2884 5.36782 6.92273 5.07272C6.73961 5.00398 6.54073 4.98347 6.34662 5.01333C6.1525 5.04319 5.97019 5.12232 5.81853 5.24256C5.55162 5.4593 5.33941 5.73147 5.19786 6.03855C5.05632 6.34562 4.98915 6.67958 5.00142 7.01524C5.00465 7.205 5.03058 7.39378 5.07871 7.57784C5.19944 8.02033 5.38932 8.44266 5.64187 8.83039C5.82013 9.12725 6.01551 9.41429 6.22709 9.6902C6.92071 10.5982 7.78603 11.3724 8.7778 11.9724C9.27753 12.2704 9.81101 12.5125 10.3679 12.6942C10.9488 12.9464 11.5891 13.0453 12.2229 12.9808C12.584 12.9298 12.9263 12.7935 13.2192 12.5842C13.5121 12.3749 13.7464 12.099 13.9013 11.7813C13.9968 11.5899 14.0239 11.3735 13.9786 11.1657C13.8461 10.7941 13.2498 10.5394 12.8965 10.3377Z" fill="white"/>
</svg>
